%TF.GenerationSoftware,KiCad,Pcbnew,10.0.1*%
%TF.CreationDate,2026-05-14T14:10:08-07:00*%
%TF.ProjectId,TurnTimer,5475726e-5469-46d6-9572-2e6b69636164,rev?*%
%TF.SameCoordinates,Original*%
%TF.FileFunction,Soldermask,Top*%
%TF.FilePolarity,Negative*%
%FSLAX46Y46*%
G04 Gerber Fmt 4.6, Leading zero omitted, Abs format (unit mm)*
G04 Created by KiCad (PCBNEW 10.0.1) date 2026-05-14 14:10:08*
%MOMM*%
%LPD*%
G01*
G04 APERTURE LIST*
%ADD10C,3.200000*%
%ADD11C,1.700000*%
%ADD12R,1.700000X1.700000*%
%ADD13C,2.000000*%
%ADD14R,2.000000X2.000000*%
%ADD15C,1.600000*%
%ADD16C,4.000000*%
%ADD17C,2.200000*%
%ADD18C,2.600000*%
%ADD19R,2.600000X2.600000*%
%ADD20C,1.727200*%
%ADD21R,1.727200X1.727200*%
%ADD22C,1.800000*%
G04 APERTURE END LIST*
D10*
%TO.C,REF\u002A\u002A*%
X143416091Y-98742485D03*
%TD*%
D11*
%TO.C,PanelSwitchConn1*%
X115000000Y-93735000D03*
D12*
X115000000Y-96275000D03*
%TD*%
D13*
%TO.C,BZ1*%
X187000000Y-92500000D03*
D14*
X182000000Y-92500000D03*
%TD*%
D12*
%TO.C,ADAFRUIT0.96TFT1*%
X178240000Y-60000000D03*
D11*
X175700000Y-60000000D03*
X173160000Y-60000000D03*
X170620000Y-60000000D03*
X168080000Y-60000000D03*
X165540000Y-60000000D03*
X163000000Y-60000000D03*
X160460000Y-60000000D03*
X157920000Y-60000000D03*
X155380000Y-60000000D03*
X152840000Y-60000000D03*
%TD*%
D15*
%TO.C,R6*%
X148840000Y-126500000D03*
X159000000Y-126500000D03*
%TD*%
%TO.C,R4*%
X124920000Y-126500000D03*
X135080000Y-126500000D03*
%TD*%
D11*
%TO.C,SW2*%
X100420000Y-138500000D03*
D16*
X105500000Y-138500000D03*
D11*
X110580000Y-138500000D03*
D17*
X108040000Y-133420000D03*
X101690000Y-135960000D03*
%TD*%
D15*
%TO.C,R1*%
X99840000Y-101000000D03*
X110000000Y-101000000D03*
%TD*%
D11*
%TO.C,SW3*%
X124920000Y-114000000D03*
D16*
X130000000Y-114000000D03*
D11*
X135080000Y-114000000D03*
D17*
X132540000Y-108920000D03*
X126190000Y-111460000D03*
%TD*%
D11*
%TO.C,SW5*%
X148840000Y-114000000D03*
D16*
X153920000Y-114000000D03*
D11*
X159000000Y-114000000D03*
D17*
X156460000Y-108920000D03*
X150110000Y-111460000D03*
%TD*%
D11*
%TO.C,SW7*%
X172920000Y-114000000D03*
D16*
X178000000Y-114000000D03*
D11*
X183080000Y-114000000D03*
D17*
X180540000Y-108920000D03*
X174190000Y-111460000D03*
%TD*%
D11*
%TO.C,SW6*%
X148840000Y-138500000D03*
D16*
X153920000Y-138500000D03*
D11*
X159000000Y-138500000D03*
D17*
X156460000Y-133420000D03*
X150110000Y-135960000D03*
%TD*%
D11*
%TO.C,SW8*%
X173000000Y-138500000D03*
D16*
X178080000Y-138500000D03*
D11*
X183160000Y-138500000D03*
D17*
X180620000Y-133420000D03*
X174270000Y-135960000D03*
%TD*%
D11*
%TO.C,SW4*%
X124730000Y-138540000D03*
D16*
X129810000Y-138540000D03*
D11*
X134890000Y-138540000D03*
D17*
X132350000Y-133460000D03*
X126000000Y-136000000D03*
%TD*%
D15*
%TO.C,R2*%
X110160000Y-126500000D03*
X100000000Y-126500000D03*
%TD*%
%TO.C,R8*%
X183000000Y-126500000D03*
X172840000Y-126500000D03*
%TD*%
D17*
%TO.C,SW1*%
X101610000Y-111460000D03*
X107960000Y-108920000D03*
D11*
X110500000Y-114000000D03*
D16*
X105420000Y-114000000D03*
D11*
X100340000Y-114000000D03*
%TD*%
D18*
%TO.C,BatterBarrelJack1*%
X106550000Y-83700000D03*
X111250000Y-80700000D03*
D19*
X111250000Y-86700000D03*
%TD*%
D15*
%TO.C,R7*%
X183000000Y-102000000D03*
X172840000Y-102000000D03*
%TD*%
%TO.C,R3*%
X134580000Y-101000000D03*
X124420000Y-101000000D03*
%TD*%
%TO.C,R5*%
X159000000Y-101500000D03*
X148840000Y-101500000D03*
%TD*%
D20*
%TO.C,ArduinoNano1*%
X123000000Y-90940000D03*
X123000000Y-85860000D03*
X138240000Y-85860000D03*
D21*
X123000000Y-88400000D03*
X138240000Y-83320000D03*
D20*
X123000000Y-55380000D03*
X138240000Y-55380000D03*
X138240000Y-57920000D03*
X138240000Y-60460000D03*
X138240000Y-63000000D03*
X138240000Y-65540000D03*
X138240000Y-68080000D03*
X138240000Y-70620000D03*
X138240000Y-73160000D03*
X138240000Y-75700000D03*
X138240000Y-78240000D03*
X138240000Y-80780000D03*
X138240000Y-90940000D03*
X138240000Y-88400000D03*
X123000000Y-60460000D03*
X123000000Y-80780000D03*
X123000000Y-78240000D03*
X123000000Y-75700000D03*
X123000000Y-73160000D03*
X123000000Y-70620000D03*
X123000000Y-68080000D03*
X123000000Y-65540000D03*
X123000000Y-63000000D03*
X123000000Y-83320000D03*
X123000000Y-57920000D03*
D22*
X123000000Y-52840000D03*
X123000000Y-93480000D03*
X138240000Y-52840000D03*
X138240000Y-93480000D03*
%TD*%
M02*
