%TF.GenerationSoftware,KiCad,Pcbnew,10.0.1*%
%TF.CreationDate,2026-05-14T14:10:08-07:00*%
%TF.ProjectId,TurnTimer,5475726e-5469-46d6-9572-2e6b69636164,rev?*%
%TF.SameCoordinates,Original*%
%TF.FileFunction,Legend,Bot*%
%TF.FilePolarity,Positive*%
%FSLAX46Y46*%
G04 Gerber Fmt 4.6, Leading zero omitted, Abs format (unit mm)*
G04 Created by KiCad (PCBNEW 10.0.1) date 2026-05-14 14:10:08*
%MOMM*%
%LPD*%
G01*
G04 APERTURE LIST*
%ADD10C,0.150000*%
G04 APERTURE END LIST*
D10*
X136789819Y-87661905D02*
X135789819Y-87661905D01*
X135789819Y-87661905D02*
X135789819Y-87900000D01*
X135789819Y-87900000D02*
X135837438Y-88042857D01*
X135837438Y-88042857D02*
X135932676Y-88138095D01*
X135932676Y-88138095D02*
X136027914Y-88185714D01*
X136027914Y-88185714D02*
X136218390Y-88233333D01*
X136218390Y-88233333D02*
X136361247Y-88233333D01*
X136361247Y-88233333D02*
X136551723Y-88185714D01*
X136551723Y-88185714D02*
X136646961Y-88138095D01*
X136646961Y-88138095D02*
X136742200Y-88042857D01*
X136742200Y-88042857D02*
X136789819Y-87900000D01*
X136789819Y-87900000D02*
X136789819Y-87661905D01*
X135789819Y-88852381D02*
X135789819Y-88947619D01*
X135789819Y-88947619D02*
X135837438Y-89042857D01*
X135837438Y-89042857D02*
X135885057Y-89090476D01*
X135885057Y-89090476D02*
X135980295Y-89138095D01*
X135980295Y-89138095D02*
X136170771Y-89185714D01*
X136170771Y-89185714D02*
X136408866Y-89185714D01*
X136408866Y-89185714D02*
X136599342Y-89138095D01*
X136599342Y-89138095D02*
X136694580Y-89090476D01*
X136694580Y-89090476D02*
X136742200Y-89042857D01*
X136742200Y-89042857D02*
X136789819Y-88947619D01*
X136789819Y-88947619D02*
X136789819Y-88852381D01*
X136789819Y-88852381D02*
X136742200Y-88757143D01*
X136742200Y-88757143D02*
X136694580Y-88709524D01*
X136694580Y-88709524D02*
X136599342Y-88661905D01*
X136599342Y-88661905D02*
X136408866Y-88614286D01*
X136408866Y-88614286D02*
X136170771Y-88614286D01*
X136170771Y-88614286D02*
X135980295Y-88661905D01*
X135980295Y-88661905D02*
X135885057Y-88709524D01*
X135885057Y-88709524D02*
X135837438Y-88757143D01*
X135837438Y-88757143D02*
X135789819Y-88852381D01*
M02*
