M48
; DRILL file KiCad 10.0.1 date 2026-05-15T11:37:20
; FORMAT={-:-/ absolute / metric / decimal}
; #@! TF.CreationDate,2026-05-15T11:37:20-07:00
; #@! TF.GenerationSoftware,Kicad,Pcbnew,10.0.1
; #@! TF.FileFunction,Plated,1,2,PTH
FMAT,2
METRIC
; #@! TA.AperFunction,Plated,PTH,ComponentDrill
T1C0.800
; #@! TA.AperFunction,Plated,PTH,ComponentDrill
T2C1.000
; #@! TA.AperFunction,Plated,PTH,ComponentDrill
T3C1.016
; #@! TA.AperFunction,Plated,PTH,ComponentDrill
T4C1.500
; #@! TA.AperFunction,Plated,PTH,ComponentDrill
T5C1.600
%
G90
G05
T1
X99.84Y-101.0
X100.0Y-126.5
X110.0Y-101.0
X110.16Y-126.5
X124.42Y-101.0
X124.92Y-126.5
X134.58Y-101.0
X135.08Y-126.5
X148.84Y-101.5
X148.84Y-126.5
X159.0Y-101.5
X159.0Y-126.5
X172.84Y-102.0
X172.84Y-126.5
X183.0Y-102.0
X183.0Y-126.5
T2
X115.0Y-93.735
X115.0Y-96.275
X152.84Y-60.0
X155.38Y-60.0
X157.92Y-60.0
X160.46Y-60.0
X163.0Y-60.0
X165.54Y-60.0
X168.08Y-60.0
X170.62Y-60.0
X173.16Y-60.0
X175.7Y-60.0
X178.24Y-60.0
X182.0Y-92.5
X187.0Y-92.5
T3
X123.0Y-55.38
X123.0Y-57.92
X123.0Y-60.46
X123.0Y-63.0
X123.0Y-65.54
X123.0Y-68.08
X123.0Y-70.62
X123.0Y-73.16
X123.0Y-75.7
X123.0Y-78.24
X123.0Y-80.78
X123.0Y-83.32
X123.0Y-85.86
X123.0Y-88.4
X123.0Y-90.94
X138.24Y-55.38
X138.24Y-57.92
X138.24Y-60.46
X138.24Y-63.0
X138.24Y-65.54
X138.24Y-68.08
X138.24Y-70.62
X138.24Y-73.16
X138.24Y-75.7
X138.24Y-78.24
X138.24Y-80.78
X138.24Y-83.32
X138.24Y-85.86
X138.24Y-88.4
X138.24Y-90.94
T4
X101.61Y-111.46
X101.69Y-135.96
X107.96Y-108.92
X108.04Y-133.42
X126.0Y-136.0
X126.19Y-111.46
X132.35Y-133.46
X132.54Y-108.92
X150.11Y-111.46
X150.11Y-135.96
X156.46Y-108.92
X156.46Y-133.42
X174.19Y-111.46
X174.27Y-135.96
X180.54Y-108.92
X180.62Y-133.42
T5
X106.55Y-83.7
X111.25Y-80.7
X111.25Y-86.7
M30
