%TF.GenerationSoftware,KiCad,Pcbnew,10.0.1*%
%TF.CreationDate,2026-05-15T11:37:25-07:00*%
%TF.ProjectId,TurnTimer,5475726e-5469-46d6-9572-2e6b69636164,rev?*%
%TF.SameCoordinates,Original*%
%TF.FileFunction,Legend,Top*%
%TF.FilePolarity,Positive*%
%FSLAX46Y46*%
G04 Gerber Fmt 4.6, Leading zero omitted, Abs format (unit mm)*
G04 Created by KiCad (PCBNEW 10.0.1) date 2026-05-15 11:37:25*
%MOMM*%
%LPD*%
G01*
G04 APERTURE LIST*
%ADD10C,0.100000*%
%ADD11C,0.150000*%
%ADD12C,0.120000*%
G04 APERTURE END LIST*
D10*
X95803884Y-52762475D02*
X95803884Y-51762475D01*
X96232455Y-52714856D02*
X96327693Y-52762475D01*
X96327693Y-52762475D02*
X96518169Y-52762475D01*
X96518169Y-52762475D02*
X96613407Y-52714856D01*
X96613407Y-52714856D02*
X96661026Y-52619617D01*
X96661026Y-52619617D02*
X96661026Y-52571998D01*
X96661026Y-52571998D02*
X96613407Y-52476760D01*
X96613407Y-52476760D02*
X96518169Y-52429141D01*
X96518169Y-52429141D02*
X96375312Y-52429141D01*
X96375312Y-52429141D02*
X96280074Y-52381522D01*
X96280074Y-52381522D02*
X96232455Y-52286284D01*
X96232455Y-52286284D02*
X96232455Y-52238665D01*
X96232455Y-52238665D02*
X96280074Y-52143427D01*
X96280074Y-52143427D02*
X96375312Y-52095808D01*
X96375312Y-52095808D02*
X96518169Y-52095808D01*
X96518169Y-52095808D02*
X96613407Y-52143427D01*
X97518169Y-52762475D02*
X97518169Y-52238665D01*
X97518169Y-52238665D02*
X97470550Y-52143427D01*
X97470550Y-52143427D02*
X97375312Y-52095808D01*
X97375312Y-52095808D02*
X97184836Y-52095808D01*
X97184836Y-52095808D02*
X97089598Y-52143427D01*
X97518169Y-52714856D02*
X97422931Y-52762475D01*
X97422931Y-52762475D02*
X97184836Y-52762475D01*
X97184836Y-52762475D02*
X97089598Y-52714856D01*
X97089598Y-52714856D02*
X97041979Y-52619617D01*
X97041979Y-52619617D02*
X97041979Y-52524379D01*
X97041979Y-52524379D02*
X97089598Y-52429141D01*
X97089598Y-52429141D02*
X97184836Y-52381522D01*
X97184836Y-52381522D02*
X97422931Y-52381522D01*
X97422931Y-52381522D02*
X97518169Y-52333903D01*
X98422931Y-52762475D02*
X98422931Y-52238665D01*
X98422931Y-52238665D02*
X98375312Y-52143427D01*
X98375312Y-52143427D02*
X98280074Y-52095808D01*
X98280074Y-52095808D02*
X98089598Y-52095808D01*
X98089598Y-52095808D02*
X97994360Y-52143427D01*
X98422931Y-52714856D02*
X98327693Y-52762475D01*
X98327693Y-52762475D02*
X98089598Y-52762475D01*
X98089598Y-52762475D02*
X97994360Y-52714856D01*
X97994360Y-52714856D02*
X97946741Y-52619617D01*
X97946741Y-52619617D02*
X97946741Y-52524379D01*
X97946741Y-52524379D02*
X97994360Y-52429141D01*
X97994360Y-52429141D02*
X98089598Y-52381522D01*
X98089598Y-52381522D02*
X98327693Y-52381522D01*
X98327693Y-52381522D02*
X98422931Y-52333903D01*
X99327693Y-52714856D02*
X99232455Y-52762475D01*
X99232455Y-52762475D02*
X99041979Y-52762475D01*
X99041979Y-52762475D02*
X98946741Y-52714856D01*
X98946741Y-52714856D02*
X98899122Y-52667236D01*
X98899122Y-52667236D02*
X98851503Y-52571998D01*
X98851503Y-52571998D02*
X98851503Y-52286284D01*
X98851503Y-52286284D02*
X98899122Y-52191046D01*
X98899122Y-52191046D02*
X98946741Y-52143427D01*
X98946741Y-52143427D02*
X99041979Y-52095808D01*
X99041979Y-52095808D02*
X99232455Y-52095808D01*
X99232455Y-52095808D02*
X99327693Y-52143427D01*
X100518170Y-52762475D02*
X100518170Y-51762475D01*
X100518170Y-51762475D02*
X101089598Y-52762475D01*
X101089598Y-52762475D02*
X101089598Y-51762475D01*
X101946741Y-52714856D02*
X101851503Y-52762475D01*
X101851503Y-52762475D02*
X101661027Y-52762475D01*
X101661027Y-52762475D02*
X101565789Y-52714856D01*
X101565789Y-52714856D02*
X101518170Y-52619617D01*
X101518170Y-52619617D02*
X101518170Y-52238665D01*
X101518170Y-52238665D02*
X101565789Y-52143427D01*
X101565789Y-52143427D02*
X101661027Y-52095808D01*
X101661027Y-52095808D02*
X101851503Y-52095808D01*
X101851503Y-52095808D02*
X101946741Y-52143427D01*
X101946741Y-52143427D02*
X101994360Y-52238665D01*
X101994360Y-52238665D02*
X101994360Y-52333903D01*
X101994360Y-52333903D02*
X101518170Y-52429141D01*
X102565789Y-52762475D02*
X102470551Y-52714856D01*
X102470551Y-52714856D02*
X102422932Y-52619617D01*
X102422932Y-52619617D02*
X102422932Y-51762475D01*
X102899123Y-52714856D02*
X102994361Y-52762475D01*
X102994361Y-52762475D02*
X103184837Y-52762475D01*
X103184837Y-52762475D02*
X103280075Y-52714856D01*
X103280075Y-52714856D02*
X103327694Y-52619617D01*
X103327694Y-52619617D02*
X103327694Y-52571998D01*
X103327694Y-52571998D02*
X103280075Y-52476760D01*
X103280075Y-52476760D02*
X103184837Y-52429141D01*
X103184837Y-52429141D02*
X103041980Y-52429141D01*
X103041980Y-52429141D02*
X102946742Y-52381522D01*
X102946742Y-52381522D02*
X102899123Y-52286284D01*
X102899123Y-52286284D02*
X102899123Y-52238665D01*
X102899123Y-52238665D02*
X102946742Y-52143427D01*
X102946742Y-52143427D02*
X103041980Y-52095808D01*
X103041980Y-52095808D02*
X103184837Y-52095808D01*
X103184837Y-52095808D02*
X103280075Y-52143427D01*
X103899123Y-52762475D02*
X103803885Y-52714856D01*
X103803885Y-52714856D02*
X103756266Y-52667236D01*
X103756266Y-52667236D02*
X103708647Y-52571998D01*
X103708647Y-52571998D02*
X103708647Y-52286284D01*
X103708647Y-52286284D02*
X103756266Y-52191046D01*
X103756266Y-52191046D02*
X103803885Y-52143427D01*
X103803885Y-52143427D02*
X103899123Y-52095808D01*
X103899123Y-52095808D02*
X104041980Y-52095808D01*
X104041980Y-52095808D02*
X104137218Y-52143427D01*
X104137218Y-52143427D02*
X104184837Y-52191046D01*
X104184837Y-52191046D02*
X104232456Y-52286284D01*
X104232456Y-52286284D02*
X104232456Y-52571998D01*
X104232456Y-52571998D02*
X104184837Y-52667236D01*
X104184837Y-52667236D02*
X104137218Y-52714856D01*
X104137218Y-52714856D02*
X104041980Y-52762475D01*
X104041980Y-52762475D02*
X103899123Y-52762475D01*
X104661028Y-52095808D02*
X104661028Y-52762475D01*
X104661028Y-52191046D02*
X104708647Y-52143427D01*
X104708647Y-52143427D02*
X104803885Y-52095808D01*
X104803885Y-52095808D02*
X104946742Y-52095808D01*
X104946742Y-52095808D02*
X105041980Y-52143427D01*
X105041980Y-52143427D02*
X105089599Y-52238665D01*
X105089599Y-52238665D02*
X105089599Y-52762475D01*
X95803884Y-53848609D02*
X96137217Y-53848609D01*
X96280074Y-54372419D02*
X95803884Y-54372419D01*
X95803884Y-54372419D02*
X95803884Y-53372419D01*
X95803884Y-53372419D02*
X96280074Y-53372419D01*
X96851503Y-54372419D02*
X96756265Y-54324800D01*
X96756265Y-54324800D02*
X96708646Y-54229561D01*
X96708646Y-54229561D02*
X96708646Y-53372419D01*
X97613408Y-54324800D02*
X97518170Y-54372419D01*
X97518170Y-54372419D02*
X97327694Y-54372419D01*
X97327694Y-54372419D02*
X97232456Y-54324800D01*
X97232456Y-54324800D02*
X97184837Y-54229561D01*
X97184837Y-54229561D02*
X97184837Y-53848609D01*
X97184837Y-53848609D02*
X97232456Y-53753371D01*
X97232456Y-53753371D02*
X97327694Y-53705752D01*
X97327694Y-53705752D02*
X97518170Y-53705752D01*
X97518170Y-53705752D02*
X97613408Y-53753371D01*
X97613408Y-53753371D02*
X97661027Y-53848609D01*
X97661027Y-53848609D02*
X97661027Y-53943847D01*
X97661027Y-53943847D02*
X97184837Y-54039085D01*
X98518170Y-54324800D02*
X98422932Y-54372419D01*
X98422932Y-54372419D02*
X98232456Y-54372419D01*
X98232456Y-54372419D02*
X98137218Y-54324800D01*
X98137218Y-54324800D02*
X98089599Y-54277180D01*
X98089599Y-54277180D02*
X98041980Y-54181942D01*
X98041980Y-54181942D02*
X98041980Y-53896228D01*
X98041980Y-53896228D02*
X98089599Y-53800990D01*
X98089599Y-53800990D02*
X98137218Y-53753371D01*
X98137218Y-53753371D02*
X98232456Y-53705752D01*
X98232456Y-53705752D02*
X98422932Y-53705752D01*
X98422932Y-53705752D02*
X98518170Y-53753371D01*
X98803885Y-53705752D02*
X99184837Y-53705752D01*
X98946742Y-53372419D02*
X98946742Y-54229561D01*
X98946742Y-54229561D02*
X98994361Y-54324800D01*
X98994361Y-54324800D02*
X99089599Y-54372419D01*
X99089599Y-54372419D02*
X99184837Y-54372419D01*
X99518171Y-54372419D02*
X99518171Y-53705752D01*
X99518171Y-53896228D02*
X99565790Y-53800990D01*
X99565790Y-53800990D02*
X99613409Y-53753371D01*
X99613409Y-53753371D02*
X99708647Y-53705752D01*
X99708647Y-53705752D02*
X99803885Y-53705752D01*
X100280076Y-54372419D02*
X100184838Y-54324800D01*
X100184838Y-54324800D02*
X100137219Y-54277180D01*
X100137219Y-54277180D02*
X100089600Y-54181942D01*
X100089600Y-54181942D02*
X100089600Y-53896228D01*
X100089600Y-53896228D02*
X100137219Y-53800990D01*
X100137219Y-53800990D02*
X100184838Y-53753371D01*
X100184838Y-53753371D02*
X100280076Y-53705752D01*
X100280076Y-53705752D02*
X100422933Y-53705752D01*
X100422933Y-53705752D02*
X100518171Y-53753371D01*
X100518171Y-53753371D02*
X100565790Y-53800990D01*
X100565790Y-53800990D02*
X100613409Y-53896228D01*
X100613409Y-53896228D02*
X100613409Y-54181942D01*
X100613409Y-54181942D02*
X100565790Y-54277180D01*
X100565790Y-54277180D02*
X100518171Y-54324800D01*
X100518171Y-54324800D02*
X100422933Y-54372419D01*
X100422933Y-54372419D02*
X100280076Y-54372419D01*
X101041981Y-53705752D02*
X101041981Y-54372419D01*
X101041981Y-53800990D02*
X101089600Y-53753371D01*
X101089600Y-53753371D02*
X101184838Y-53705752D01*
X101184838Y-53705752D02*
X101327695Y-53705752D01*
X101327695Y-53705752D02*
X101422933Y-53753371D01*
X101422933Y-53753371D02*
X101470552Y-53848609D01*
X101470552Y-53848609D02*
X101470552Y-54372419D01*
X101946743Y-54372419D02*
X101946743Y-53705752D01*
X101946743Y-53372419D02*
X101899124Y-53420038D01*
X101899124Y-53420038D02*
X101946743Y-53467657D01*
X101946743Y-53467657D02*
X101994362Y-53420038D01*
X101994362Y-53420038D02*
X101946743Y-53372419D01*
X101946743Y-53372419D02*
X101946743Y-53467657D01*
X102851504Y-54324800D02*
X102756266Y-54372419D01*
X102756266Y-54372419D02*
X102565790Y-54372419D01*
X102565790Y-54372419D02*
X102470552Y-54324800D01*
X102470552Y-54324800D02*
X102422933Y-54277180D01*
X102422933Y-54277180D02*
X102375314Y-54181942D01*
X102375314Y-54181942D02*
X102375314Y-53896228D01*
X102375314Y-53896228D02*
X102422933Y-53800990D01*
X102422933Y-53800990D02*
X102470552Y-53753371D01*
X102470552Y-53753371D02*
X102565790Y-53705752D01*
X102565790Y-53705752D02*
X102756266Y-53705752D01*
X102756266Y-53705752D02*
X102851504Y-53753371D01*
X103232457Y-54324800D02*
X103327695Y-54372419D01*
X103327695Y-54372419D02*
X103518171Y-54372419D01*
X103518171Y-54372419D02*
X103613409Y-54324800D01*
X103613409Y-54324800D02*
X103661028Y-54229561D01*
X103661028Y-54229561D02*
X103661028Y-54181942D01*
X103661028Y-54181942D02*
X103613409Y-54086704D01*
X103613409Y-54086704D02*
X103518171Y-54039085D01*
X103518171Y-54039085D02*
X103375314Y-54039085D01*
X103375314Y-54039085D02*
X103280076Y-53991466D01*
X103280076Y-53991466D02*
X103232457Y-53896228D01*
X103232457Y-53896228D02*
X103232457Y-53848609D01*
X103232457Y-53848609D02*
X103280076Y-53753371D01*
X103280076Y-53753371D02*
X103375314Y-53705752D01*
X103375314Y-53705752D02*
X103518171Y-53705752D01*
X103518171Y-53705752D02*
X103613409Y-53753371D01*
X105422933Y-54277180D02*
X105375314Y-54324800D01*
X105375314Y-54324800D02*
X105232457Y-54372419D01*
X105232457Y-54372419D02*
X105137219Y-54372419D01*
X105137219Y-54372419D02*
X104994362Y-54324800D01*
X104994362Y-54324800D02*
X104899124Y-54229561D01*
X104899124Y-54229561D02*
X104851505Y-54134323D01*
X104851505Y-54134323D02*
X104803886Y-53943847D01*
X104803886Y-53943847D02*
X104803886Y-53800990D01*
X104803886Y-53800990D02*
X104851505Y-53610514D01*
X104851505Y-53610514D02*
X104899124Y-53515276D01*
X104899124Y-53515276D02*
X104994362Y-53420038D01*
X104994362Y-53420038D02*
X105137219Y-53372419D01*
X105137219Y-53372419D02*
X105232457Y-53372419D01*
X105232457Y-53372419D02*
X105375314Y-53420038D01*
X105375314Y-53420038D02*
X105422933Y-53467657D01*
X105994362Y-54372419D02*
X105899124Y-54324800D01*
X105899124Y-54324800D02*
X105851505Y-54229561D01*
X105851505Y-54229561D02*
X105851505Y-53372419D01*
X106803886Y-53705752D02*
X106803886Y-54372419D01*
X106375315Y-53705752D02*
X106375315Y-54229561D01*
X106375315Y-54229561D02*
X106422934Y-54324800D01*
X106422934Y-54324800D02*
X106518172Y-54372419D01*
X106518172Y-54372419D02*
X106661029Y-54372419D01*
X106661029Y-54372419D02*
X106756267Y-54324800D01*
X106756267Y-54324800D02*
X106803886Y-54277180D01*
X107280077Y-54372419D02*
X107280077Y-53372419D01*
X107280077Y-53753371D02*
X107375315Y-53705752D01*
X107375315Y-53705752D02*
X107565791Y-53705752D01*
X107565791Y-53705752D02*
X107661029Y-53753371D01*
X107661029Y-53753371D02*
X107708648Y-53800990D01*
X107708648Y-53800990D02*
X107756267Y-53896228D01*
X107756267Y-53896228D02*
X107756267Y-54181942D01*
X107756267Y-54181942D02*
X107708648Y-54277180D01*
X107708648Y-54277180D02*
X107661029Y-54324800D01*
X107661029Y-54324800D02*
X107565791Y-54372419D01*
X107565791Y-54372419D02*
X107375315Y-54372419D01*
X107375315Y-54372419D02*
X107280077Y-54324800D01*
X109565791Y-53896228D02*
X109518172Y-53848609D01*
X109518172Y-53848609D02*
X109422934Y-53800990D01*
X109422934Y-53800990D02*
X109327696Y-53800990D01*
X109327696Y-53800990D02*
X109232458Y-53848609D01*
X109232458Y-53848609D02*
X109184839Y-53896228D01*
X109184839Y-53896228D02*
X109137220Y-53991466D01*
X109137220Y-53991466D02*
X109137220Y-54086704D01*
X109137220Y-54086704D02*
X109184839Y-54181942D01*
X109184839Y-54181942D02*
X109232458Y-54229561D01*
X109232458Y-54229561D02*
X109327696Y-54277180D01*
X109327696Y-54277180D02*
X109422934Y-54277180D01*
X109422934Y-54277180D02*
X109518172Y-54229561D01*
X109518172Y-54229561D02*
X109565791Y-54181942D01*
X109565791Y-53800990D02*
X109565791Y-54181942D01*
X109565791Y-54181942D02*
X109613410Y-54229561D01*
X109613410Y-54229561D02*
X109661029Y-54229561D01*
X109661029Y-54229561D02*
X109756268Y-54181942D01*
X109756268Y-54181942D02*
X109803887Y-54086704D01*
X109803887Y-54086704D02*
X109803887Y-53848609D01*
X109803887Y-53848609D02*
X109708649Y-53705752D01*
X109708649Y-53705752D02*
X109565791Y-53610514D01*
X109565791Y-53610514D02*
X109375315Y-53562895D01*
X109375315Y-53562895D02*
X109184839Y-53610514D01*
X109184839Y-53610514D02*
X109041982Y-53705752D01*
X109041982Y-53705752D02*
X108946744Y-53848609D01*
X108946744Y-53848609D02*
X108899125Y-54039085D01*
X108899125Y-54039085D02*
X108946744Y-54229561D01*
X108946744Y-54229561D02*
X109041982Y-54372419D01*
X109041982Y-54372419D02*
X109184839Y-54467657D01*
X109184839Y-54467657D02*
X109375315Y-54515276D01*
X109375315Y-54515276D02*
X109565791Y-54467657D01*
X109565791Y-54467657D02*
X109708649Y-54372419D01*
X110994363Y-53372419D02*
X110994363Y-54181942D01*
X110994363Y-54181942D02*
X111041982Y-54277180D01*
X111041982Y-54277180D02*
X111089601Y-54324800D01*
X111089601Y-54324800D02*
X111184839Y-54372419D01*
X111184839Y-54372419D02*
X111375315Y-54372419D01*
X111375315Y-54372419D02*
X111470553Y-54324800D01*
X111470553Y-54324800D02*
X111518172Y-54277180D01*
X111518172Y-54277180D02*
X111565791Y-54181942D01*
X111565791Y-54181942D02*
X111565791Y-53372419D01*
X111946744Y-53372419D02*
X112184839Y-54372419D01*
X112184839Y-54372419D02*
X112375315Y-53658133D01*
X112375315Y-53658133D02*
X112565791Y-54372419D01*
X112565791Y-54372419D02*
X112803887Y-53372419D01*
X114280077Y-53848609D02*
X114422934Y-53896228D01*
X114422934Y-53896228D02*
X114470553Y-53943847D01*
X114470553Y-53943847D02*
X114518172Y-54039085D01*
X114518172Y-54039085D02*
X114518172Y-54181942D01*
X114518172Y-54181942D02*
X114470553Y-54277180D01*
X114470553Y-54277180D02*
X114422934Y-54324800D01*
X114422934Y-54324800D02*
X114327696Y-54372419D01*
X114327696Y-54372419D02*
X113946744Y-54372419D01*
X113946744Y-54372419D02*
X113946744Y-53372419D01*
X113946744Y-53372419D02*
X114280077Y-53372419D01*
X114280077Y-53372419D02*
X114375315Y-53420038D01*
X114375315Y-53420038D02*
X114422934Y-53467657D01*
X114422934Y-53467657D02*
X114470553Y-53562895D01*
X114470553Y-53562895D02*
X114470553Y-53658133D01*
X114470553Y-53658133D02*
X114422934Y-53753371D01*
X114422934Y-53753371D02*
X114375315Y-53800990D01*
X114375315Y-53800990D02*
X114280077Y-53848609D01*
X114280077Y-53848609D02*
X113946744Y-53848609D01*
X115089601Y-54372419D02*
X114994363Y-54324800D01*
X114994363Y-54324800D02*
X114946744Y-54277180D01*
X114946744Y-54277180D02*
X114899125Y-54181942D01*
X114899125Y-54181942D02*
X114899125Y-53896228D01*
X114899125Y-53896228D02*
X114946744Y-53800990D01*
X114946744Y-53800990D02*
X114994363Y-53753371D01*
X114994363Y-53753371D02*
X115089601Y-53705752D01*
X115089601Y-53705752D02*
X115232458Y-53705752D01*
X115232458Y-53705752D02*
X115327696Y-53753371D01*
X115327696Y-53753371D02*
X115375315Y-53800990D01*
X115375315Y-53800990D02*
X115422934Y-53896228D01*
X115422934Y-53896228D02*
X115422934Y-54181942D01*
X115422934Y-54181942D02*
X115375315Y-54277180D01*
X115375315Y-54277180D02*
X115327696Y-54324800D01*
X115327696Y-54324800D02*
X115232458Y-54372419D01*
X115232458Y-54372419D02*
X115089601Y-54372419D01*
X115708649Y-53705752D02*
X116089601Y-53705752D01*
X115851506Y-53372419D02*
X115851506Y-54229561D01*
X115851506Y-54229561D02*
X115899125Y-54324800D01*
X115899125Y-54324800D02*
X115994363Y-54372419D01*
X115994363Y-54372419D02*
X116089601Y-54372419D01*
X116422935Y-54372419D02*
X116422935Y-53372419D01*
X116851506Y-54372419D02*
X116851506Y-53848609D01*
X116851506Y-53848609D02*
X116803887Y-53753371D01*
X116803887Y-53753371D02*
X116708649Y-53705752D01*
X116708649Y-53705752D02*
X116565792Y-53705752D01*
X116565792Y-53705752D02*
X116470554Y-53753371D01*
X116470554Y-53753371D02*
X116422935Y-53800990D01*
X117708649Y-54324800D02*
X117613411Y-54372419D01*
X117613411Y-54372419D02*
X117422935Y-54372419D01*
X117422935Y-54372419D02*
X117327697Y-54324800D01*
X117327697Y-54324800D02*
X117280078Y-54229561D01*
X117280078Y-54229561D02*
X117280078Y-53848609D01*
X117280078Y-53848609D02*
X117327697Y-53753371D01*
X117327697Y-53753371D02*
X117422935Y-53705752D01*
X117422935Y-53705752D02*
X117613411Y-53705752D01*
X117613411Y-53705752D02*
X117708649Y-53753371D01*
X117708649Y-53753371D02*
X117756268Y-53848609D01*
X117756268Y-53848609D02*
X117756268Y-53943847D01*
X117756268Y-53943847D02*
X117280078Y-54039085D01*
X118327697Y-54372419D02*
X118232459Y-54324800D01*
X118232459Y-54324800D02*
X118184840Y-54229561D01*
X118184840Y-54229561D02*
X118184840Y-53372419D01*
X118851507Y-54372419D02*
X118756269Y-54324800D01*
X118756269Y-54324800D02*
X118708650Y-54229561D01*
X118708650Y-54229561D02*
X118708650Y-53372419D01*
D11*
X142082757Y-95047304D02*
X141749424Y-94571113D01*
X141511329Y-95047304D02*
X141511329Y-94047304D01*
X141511329Y-94047304D02*
X141892281Y-94047304D01*
X141892281Y-94047304D02*
X141987519Y-94094923D01*
X141987519Y-94094923D02*
X142035138Y-94142542D01*
X142035138Y-94142542D02*
X142082757Y-94237780D01*
X142082757Y-94237780D02*
X142082757Y-94380637D01*
X142082757Y-94380637D02*
X142035138Y-94475875D01*
X142035138Y-94475875D02*
X141987519Y-94523494D01*
X141987519Y-94523494D02*
X141892281Y-94571113D01*
X141892281Y-94571113D02*
X141511329Y-94571113D01*
X142511329Y-94523494D02*
X142844662Y-94523494D01*
X142987519Y-95047304D02*
X142511329Y-95047304D01*
X142511329Y-95047304D02*
X142511329Y-94047304D01*
X142511329Y-94047304D02*
X142987519Y-94047304D01*
X143749424Y-94523494D02*
X143416091Y-94523494D01*
X143416091Y-95047304D02*
X143416091Y-94047304D01*
X143416091Y-94047304D02*
X143892281Y-94047304D01*
X144416091Y-94047304D02*
X144416091Y-94285399D01*
X144177996Y-94190161D02*
X144416091Y-94285399D01*
X144416091Y-94285399D02*
X144654186Y-94190161D01*
X144273234Y-94475875D02*
X144416091Y-94285399D01*
X144416091Y-94285399D02*
X144558948Y-94475875D01*
X145177996Y-94047304D02*
X145177996Y-94285399D01*
X144939901Y-94190161D02*
X145177996Y-94285399D01*
X145177996Y-94285399D02*
X145416091Y-94190161D01*
X145035139Y-94475875D02*
X145177996Y-94285399D01*
X145177996Y-94285399D02*
X145320853Y-94475875D01*
X108404761Y-99109819D02*
X108404761Y-98109819D01*
X108404761Y-98109819D02*
X108785713Y-98109819D01*
X108785713Y-98109819D02*
X108880951Y-98157438D01*
X108880951Y-98157438D02*
X108928570Y-98205057D01*
X108928570Y-98205057D02*
X108976189Y-98300295D01*
X108976189Y-98300295D02*
X108976189Y-98443152D01*
X108976189Y-98443152D02*
X108928570Y-98538390D01*
X108928570Y-98538390D02*
X108880951Y-98586009D01*
X108880951Y-98586009D02*
X108785713Y-98633628D01*
X108785713Y-98633628D02*
X108404761Y-98633628D01*
X109833332Y-99109819D02*
X109833332Y-98586009D01*
X109833332Y-98586009D02*
X109785713Y-98490771D01*
X109785713Y-98490771D02*
X109690475Y-98443152D01*
X109690475Y-98443152D02*
X109499999Y-98443152D01*
X109499999Y-98443152D02*
X109404761Y-98490771D01*
X109833332Y-99062200D02*
X109738094Y-99109819D01*
X109738094Y-99109819D02*
X109499999Y-99109819D01*
X109499999Y-99109819D02*
X109404761Y-99062200D01*
X109404761Y-99062200D02*
X109357142Y-98966961D01*
X109357142Y-98966961D02*
X109357142Y-98871723D01*
X109357142Y-98871723D02*
X109404761Y-98776485D01*
X109404761Y-98776485D02*
X109499999Y-98728866D01*
X109499999Y-98728866D02*
X109738094Y-98728866D01*
X109738094Y-98728866D02*
X109833332Y-98681247D01*
X110309523Y-98443152D02*
X110309523Y-99109819D01*
X110309523Y-98538390D02*
X110357142Y-98490771D01*
X110357142Y-98490771D02*
X110452380Y-98443152D01*
X110452380Y-98443152D02*
X110595237Y-98443152D01*
X110595237Y-98443152D02*
X110690475Y-98490771D01*
X110690475Y-98490771D02*
X110738094Y-98586009D01*
X110738094Y-98586009D02*
X110738094Y-99109819D01*
X111595237Y-99062200D02*
X111499999Y-99109819D01*
X111499999Y-99109819D02*
X111309523Y-99109819D01*
X111309523Y-99109819D02*
X111214285Y-99062200D01*
X111214285Y-99062200D02*
X111166666Y-98966961D01*
X111166666Y-98966961D02*
X111166666Y-98586009D01*
X111166666Y-98586009D02*
X111214285Y-98490771D01*
X111214285Y-98490771D02*
X111309523Y-98443152D01*
X111309523Y-98443152D02*
X111499999Y-98443152D01*
X111499999Y-98443152D02*
X111595237Y-98490771D01*
X111595237Y-98490771D02*
X111642856Y-98586009D01*
X111642856Y-98586009D02*
X111642856Y-98681247D01*
X111642856Y-98681247D02*
X111166666Y-98776485D01*
X112214285Y-99109819D02*
X112119047Y-99062200D01*
X112119047Y-99062200D02*
X112071428Y-98966961D01*
X112071428Y-98966961D02*
X112071428Y-98109819D01*
X112547619Y-99062200D02*
X112690476Y-99109819D01*
X112690476Y-99109819D02*
X112928571Y-99109819D01*
X112928571Y-99109819D02*
X113023809Y-99062200D01*
X113023809Y-99062200D02*
X113071428Y-99014580D01*
X113071428Y-99014580D02*
X113119047Y-98919342D01*
X113119047Y-98919342D02*
X113119047Y-98824104D01*
X113119047Y-98824104D02*
X113071428Y-98728866D01*
X113071428Y-98728866D02*
X113023809Y-98681247D01*
X113023809Y-98681247D02*
X112928571Y-98633628D01*
X112928571Y-98633628D02*
X112738095Y-98586009D01*
X112738095Y-98586009D02*
X112642857Y-98538390D01*
X112642857Y-98538390D02*
X112595238Y-98490771D01*
X112595238Y-98490771D02*
X112547619Y-98395533D01*
X112547619Y-98395533D02*
X112547619Y-98300295D01*
X112547619Y-98300295D02*
X112595238Y-98205057D01*
X112595238Y-98205057D02*
X112642857Y-98157438D01*
X112642857Y-98157438D02*
X112738095Y-98109819D01*
X112738095Y-98109819D02*
X112976190Y-98109819D01*
X112976190Y-98109819D02*
X113119047Y-98157438D01*
X113452381Y-98443152D02*
X113642857Y-99109819D01*
X113642857Y-99109819D02*
X113833333Y-98633628D01*
X113833333Y-98633628D02*
X114023809Y-99109819D01*
X114023809Y-99109819D02*
X114214285Y-98443152D01*
X114595238Y-99109819D02*
X114595238Y-98443152D01*
X114595238Y-98109819D02*
X114547619Y-98157438D01*
X114547619Y-98157438D02*
X114595238Y-98205057D01*
X114595238Y-98205057D02*
X114642857Y-98157438D01*
X114642857Y-98157438D02*
X114595238Y-98109819D01*
X114595238Y-98109819D02*
X114595238Y-98205057D01*
X114928571Y-98443152D02*
X115309523Y-98443152D01*
X115071428Y-98109819D02*
X115071428Y-98966961D01*
X115071428Y-98966961D02*
X115119047Y-99062200D01*
X115119047Y-99062200D02*
X115214285Y-99109819D01*
X115214285Y-99109819D02*
X115309523Y-99109819D01*
X116071428Y-99062200D02*
X115976190Y-99109819D01*
X115976190Y-99109819D02*
X115785714Y-99109819D01*
X115785714Y-99109819D02*
X115690476Y-99062200D01*
X115690476Y-99062200D02*
X115642857Y-99014580D01*
X115642857Y-99014580D02*
X115595238Y-98919342D01*
X115595238Y-98919342D02*
X115595238Y-98633628D01*
X115595238Y-98633628D02*
X115642857Y-98538390D01*
X115642857Y-98538390D02*
X115690476Y-98490771D01*
X115690476Y-98490771D02*
X115785714Y-98443152D01*
X115785714Y-98443152D02*
X115976190Y-98443152D01*
X115976190Y-98443152D02*
X116071428Y-98490771D01*
X116500000Y-99109819D02*
X116500000Y-98109819D01*
X116928571Y-99109819D02*
X116928571Y-98586009D01*
X116928571Y-98586009D02*
X116880952Y-98490771D01*
X116880952Y-98490771D02*
X116785714Y-98443152D01*
X116785714Y-98443152D02*
X116642857Y-98443152D01*
X116642857Y-98443152D02*
X116547619Y-98490771D01*
X116547619Y-98490771D02*
X116500000Y-98538390D01*
X117976190Y-99014580D02*
X117928571Y-99062200D01*
X117928571Y-99062200D02*
X117785714Y-99109819D01*
X117785714Y-99109819D02*
X117690476Y-99109819D01*
X117690476Y-99109819D02*
X117547619Y-99062200D01*
X117547619Y-99062200D02*
X117452381Y-98966961D01*
X117452381Y-98966961D02*
X117404762Y-98871723D01*
X117404762Y-98871723D02*
X117357143Y-98681247D01*
X117357143Y-98681247D02*
X117357143Y-98538390D01*
X117357143Y-98538390D02*
X117404762Y-98347914D01*
X117404762Y-98347914D02*
X117452381Y-98252676D01*
X117452381Y-98252676D02*
X117547619Y-98157438D01*
X117547619Y-98157438D02*
X117690476Y-98109819D01*
X117690476Y-98109819D02*
X117785714Y-98109819D01*
X117785714Y-98109819D02*
X117928571Y-98157438D01*
X117928571Y-98157438D02*
X117976190Y-98205057D01*
X118547619Y-99109819D02*
X118452381Y-99062200D01*
X118452381Y-99062200D02*
X118404762Y-99014580D01*
X118404762Y-99014580D02*
X118357143Y-98919342D01*
X118357143Y-98919342D02*
X118357143Y-98633628D01*
X118357143Y-98633628D02*
X118404762Y-98538390D01*
X118404762Y-98538390D02*
X118452381Y-98490771D01*
X118452381Y-98490771D02*
X118547619Y-98443152D01*
X118547619Y-98443152D02*
X118690476Y-98443152D01*
X118690476Y-98443152D02*
X118785714Y-98490771D01*
X118785714Y-98490771D02*
X118833333Y-98538390D01*
X118833333Y-98538390D02*
X118880952Y-98633628D01*
X118880952Y-98633628D02*
X118880952Y-98919342D01*
X118880952Y-98919342D02*
X118833333Y-99014580D01*
X118833333Y-99014580D02*
X118785714Y-99062200D01*
X118785714Y-99062200D02*
X118690476Y-99109819D01*
X118690476Y-99109819D02*
X118547619Y-99109819D01*
X119309524Y-98443152D02*
X119309524Y-99109819D01*
X119309524Y-98538390D02*
X119357143Y-98490771D01*
X119357143Y-98490771D02*
X119452381Y-98443152D01*
X119452381Y-98443152D02*
X119595238Y-98443152D01*
X119595238Y-98443152D02*
X119690476Y-98490771D01*
X119690476Y-98490771D02*
X119738095Y-98586009D01*
X119738095Y-98586009D02*
X119738095Y-99109819D01*
X120214286Y-98443152D02*
X120214286Y-99109819D01*
X120214286Y-98538390D02*
X120261905Y-98490771D01*
X120261905Y-98490771D02*
X120357143Y-98443152D01*
X120357143Y-98443152D02*
X120500000Y-98443152D01*
X120500000Y-98443152D02*
X120595238Y-98490771D01*
X120595238Y-98490771D02*
X120642857Y-98586009D01*
X120642857Y-98586009D02*
X120642857Y-99109819D01*
X121642857Y-99109819D02*
X121071429Y-99109819D01*
X121357143Y-99109819D02*
X121357143Y-98109819D01*
X121357143Y-98109819D02*
X121261905Y-98252676D01*
X121261905Y-98252676D02*
X121166667Y-98347914D01*
X121166667Y-98347914D02*
X121071429Y-98395533D01*
X183619047Y-85261009D02*
X183761904Y-85308628D01*
X183761904Y-85308628D02*
X183809523Y-85356247D01*
X183809523Y-85356247D02*
X183857142Y-85451485D01*
X183857142Y-85451485D02*
X183857142Y-85594342D01*
X183857142Y-85594342D02*
X183809523Y-85689580D01*
X183809523Y-85689580D02*
X183761904Y-85737200D01*
X183761904Y-85737200D02*
X183666666Y-85784819D01*
X183666666Y-85784819D02*
X183285714Y-85784819D01*
X183285714Y-85784819D02*
X183285714Y-84784819D01*
X183285714Y-84784819D02*
X183619047Y-84784819D01*
X183619047Y-84784819D02*
X183714285Y-84832438D01*
X183714285Y-84832438D02*
X183761904Y-84880057D01*
X183761904Y-84880057D02*
X183809523Y-84975295D01*
X183809523Y-84975295D02*
X183809523Y-85070533D01*
X183809523Y-85070533D02*
X183761904Y-85165771D01*
X183761904Y-85165771D02*
X183714285Y-85213390D01*
X183714285Y-85213390D02*
X183619047Y-85261009D01*
X183619047Y-85261009D02*
X183285714Y-85261009D01*
X184190476Y-84784819D02*
X184857142Y-84784819D01*
X184857142Y-84784819D02*
X184190476Y-85784819D01*
X184190476Y-85784819D02*
X184857142Y-85784819D01*
X185761904Y-85784819D02*
X185190476Y-85784819D01*
X185476190Y-85784819D02*
X185476190Y-84784819D01*
X185476190Y-84784819D02*
X185380952Y-84927676D01*
X185380952Y-84927676D02*
X185285714Y-85022914D01*
X185285714Y-85022914D02*
X185190476Y-85070533D01*
X159508571Y-56669104D02*
X159984761Y-56669104D01*
X159413333Y-56954819D02*
X159746666Y-55954819D01*
X159746666Y-55954819D02*
X160079999Y-56954819D01*
X160413333Y-56954819D02*
X160413333Y-55954819D01*
X160413333Y-55954819D02*
X160651428Y-55954819D01*
X160651428Y-55954819D02*
X160794285Y-56002438D01*
X160794285Y-56002438D02*
X160889523Y-56097676D01*
X160889523Y-56097676D02*
X160937142Y-56192914D01*
X160937142Y-56192914D02*
X160984761Y-56383390D01*
X160984761Y-56383390D02*
X160984761Y-56526247D01*
X160984761Y-56526247D02*
X160937142Y-56716723D01*
X160937142Y-56716723D02*
X160889523Y-56811961D01*
X160889523Y-56811961D02*
X160794285Y-56907200D01*
X160794285Y-56907200D02*
X160651428Y-56954819D01*
X160651428Y-56954819D02*
X160413333Y-56954819D01*
X161365714Y-56669104D02*
X161841904Y-56669104D01*
X161270476Y-56954819D02*
X161603809Y-55954819D01*
X161603809Y-55954819D02*
X161937142Y-56954819D01*
X162603809Y-56431009D02*
X162270476Y-56431009D01*
X162270476Y-56954819D02*
X162270476Y-55954819D01*
X162270476Y-55954819D02*
X162746666Y-55954819D01*
X163699047Y-56954819D02*
X163365714Y-56478628D01*
X163127619Y-56954819D02*
X163127619Y-55954819D01*
X163127619Y-55954819D02*
X163508571Y-55954819D01*
X163508571Y-55954819D02*
X163603809Y-56002438D01*
X163603809Y-56002438D02*
X163651428Y-56050057D01*
X163651428Y-56050057D02*
X163699047Y-56145295D01*
X163699047Y-56145295D02*
X163699047Y-56288152D01*
X163699047Y-56288152D02*
X163651428Y-56383390D01*
X163651428Y-56383390D02*
X163603809Y-56431009D01*
X163603809Y-56431009D02*
X163508571Y-56478628D01*
X163508571Y-56478628D02*
X163127619Y-56478628D01*
X164127619Y-55954819D02*
X164127619Y-56764342D01*
X164127619Y-56764342D02*
X164175238Y-56859580D01*
X164175238Y-56859580D02*
X164222857Y-56907200D01*
X164222857Y-56907200D02*
X164318095Y-56954819D01*
X164318095Y-56954819D02*
X164508571Y-56954819D01*
X164508571Y-56954819D02*
X164603809Y-56907200D01*
X164603809Y-56907200D02*
X164651428Y-56859580D01*
X164651428Y-56859580D02*
X164699047Y-56764342D01*
X164699047Y-56764342D02*
X164699047Y-55954819D01*
X165175238Y-56954819D02*
X165175238Y-55954819D01*
X165508571Y-55954819D02*
X166079999Y-55954819D01*
X165794285Y-56954819D02*
X165794285Y-55954819D01*
X166603809Y-55954819D02*
X166699047Y-55954819D01*
X166699047Y-55954819D02*
X166794285Y-56002438D01*
X166794285Y-56002438D02*
X166841904Y-56050057D01*
X166841904Y-56050057D02*
X166889523Y-56145295D01*
X166889523Y-56145295D02*
X166937142Y-56335771D01*
X166937142Y-56335771D02*
X166937142Y-56573866D01*
X166937142Y-56573866D02*
X166889523Y-56764342D01*
X166889523Y-56764342D02*
X166841904Y-56859580D01*
X166841904Y-56859580D02*
X166794285Y-56907200D01*
X166794285Y-56907200D02*
X166699047Y-56954819D01*
X166699047Y-56954819D02*
X166603809Y-56954819D01*
X166603809Y-56954819D02*
X166508571Y-56907200D01*
X166508571Y-56907200D02*
X166460952Y-56859580D01*
X166460952Y-56859580D02*
X166413333Y-56764342D01*
X166413333Y-56764342D02*
X166365714Y-56573866D01*
X166365714Y-56573866D02*
X166365714Y-56335771D01*
X166365714Y-56335771D02*
X166413333Y-56145295D01*
X166413333Y-56145295D02*
X166460952Y-56050057D01*
X166460952Y-56050057D02*
X166508571Y-56002438D01*
X166508571Y-56002438D02*
X166603809Y-55954819D01*
X167365714Y-56859580D02*
X167413333Y-56907200D01*
X167413333Y-56907200D02*
X167365714Y-56954819D01*
X167365714Y-56954819D02*
X167318095Y-56907200D01*
X167318095Y-56907200D02*
X167365714Y-56859580D01*
X167365714Y-56859580D02*
X167365714Y-56954819D01*
X167889523Y-56954819D02*
X168079999Y-56954819D01*
X168079999Y-56954819D02*
X168175237Y-56907200D01*
X168175237Y-56907200D02*
X168222856Y-56859580D01*
X168222856Y-56859580D02*
X168318094Y-56716723D01*
X168318094Y-56716723D02*
X168365713Y-56526247D01*
X168365713Y-56526247D02*
X168365713Y-56145295D01*
X168365713Y-56145295D02*
X168318094Y-56050057D01*
X168318094Y-56050057D02*
X168270475Y-56002438D01*
X168270475Y-56002438D02*
X168175237Y-55954819D01*
X168175237Y-55954819D02*
X167984761Y-55954819D01*
X167984761Y-55954819D02*
X167889523Y-56002438D01*
X167889523Y-56002438D02*
X167841904Y-56050057D01*
X167841904Y-56050057D02*
X167794285Y-56145295D01*
X167794285Y-56145295D02*
X167794285Y-56383390D01*
X167794285Y-56383390D02*
X167841904Y-56478628D01*
X167841904Y-56478628D02*
X167889523Y-56526247D01*
X167889523Y-56526247D02*
X167984761Y-56573866D01*
X167984761Y-56573866D02*
X168175237Y-56573866D01*
X168175237Y-56573866D02*
X168270475Y-56526247D01*
X168270475Y-56526247D02*
X168318094Y-56478628D01*
X168318094Y-56478628D02*
X168365713Y-56383390D01*
X169222856Y-55954819D02*
X169032380Y-55954819D01*
X169032380Y-55954819D02*
X168937142Y-56002438D01*
X168937142Y-56002438D02*
X168889523Y-56050057D01*
X168889523Y-56050057D02*
X168794285Y-56192914D01*
X168794285Y-56192914D02*
X168746666Y-56383390D01*
X168746666Y-56383390D02*
X168746666Y-56764342D01*
X168746666Y-56764342D02*
X168794285Y-56859580D01*
X168794285Y-56859580D02*
X168841904Y-56907200D01*
X168841904Y-56907200D02*
X168937142Y-56954819D01*
X168937142Y-56954819D02*
X169127618Y-56954819D01*
X169127618Y-56954819D02*
X169222856Y-56907200D01*
X169222856Y-56907200D02*
X169270475Y-56859580D01*
X169270475Y-56859580D02*
X169318094Y-56764342D01*
X169318094Y-56764342D02*
X169318094Y-56526247D01*
X169318094Y-56526247D02*
X169270475Y-56431009D01*
X169270475Y-56431009D02*
X169222856Y-56383390D01*
X169222856Y-56383390D02*
X169127618Y-56335771D01*
X169127618Y-56335771D02*
X168937142Y-56335771D01*
X168937142Y-56335771D02*
X168841904Y-56383390D01*
X168841904Y-56383390D02*
X168794285Y-56431009D01*
X168794285Y-56431009D02*
X168746666Y-56526247D01*
X169603809Y-55954819D02*
X170175237Y-55954819D01*
X169889523Y-56954819D02*
X169889523Y-55954819D01*
X170841904Y-56431009D02*
X170508571Y-56431009D01*
X170508571Y-56954819D02*
X170508571Y-55954819D01*
X170508571Y-55954819D02*
X170984761Y-55954819D01*
X171222857Y-55954819D02*
X171794285Y-55954819D01*
X171508571Y-56954819D02*
X171508571Y-55954819D01*
X172651428Y-56954819D02*
X172080000Y-56954819D01*
X172365714Y-56954819D02*
X172365714Y-55954819D01*
X172365714Y-55954819D02*
X172270476Y-56097676D01*
X172270476Y-56097676D02*
X172175238Y-56192914D01*
X172175238Y-56192914D02*
X172080000Y-56240533D01*
X153753333Y-124584819D02*
X153420000Y-124108628D01*
X153181905Y-124584819D02*
X153181905Y-123584819D01*
X153181905Y-123584819D02*
X153562857Y-123584819D01*
X153562857Y-123584819D02*
X153658095Y-123632438D01*
X153658095Y-123632438D02*
X153705714Y-123680057D01*
X153705714Y-123680057D02*
X153753333Y-123775295D01*
X153753333Y-123775295D02*
X153753333Y-123918152D01*
X153753333Y-123918152D02*
X153705714Y-124013390D01*
X153705714Y-124013390D02*
X153658095Y-124061009D01*
X153658095Y-124061009D02*
X153562857Y-124108628D01*
X153562857Y-124108628D02*
X153181905Y-124108628D01*
X154610476Y-123584819D02*
X154420000Y-123584819D01*
X154420000Y-123584819D02*
X154324762Y-123632438D01*
X154324762Y-123632438D02*
X154277143Y-123680057D01*
X154277143Y-123680057D02*
X154181905Y-123822914D01*
X154181905Y-123822914D02*
X154134286Y-124013390D01*
X154134286Y-124013390D02*
X154134286Y-124394342D01*
X154134286Y-124394342D02*
X154181905Y-124489580D01*
X154181905Y-124489580D02*
X154229524Y-124537200D01*
X154229524Y-124537200D02*
X154324762Y-124584819D01*
X154324762Y-124584819D02*
X154515238Y-124584819D01*
X154515238Y-124584819D02*
X154610476Y-124537200D01*
X154610476Y-124537200D02*
X154658095Y-124489580D01*
X154658095Y-124489580D02*
X154705714Y-124394342D01*
X154705714Y-124394342D02*
X154705714Y-124156247D01*
X154705714Y-124156247D02*
X154658095Y-124061009D01*
X154658095Y-124061009D02*
X154610476Y-124013390D01*
X154610476Y-124013390D02*
X154515238Y-123965771D01*
X154515238Y-123965771D02*
X154324762Y-123965771D01*
X154324762Y-123965771D02*
X154229524Y-124013390D01*
X154229524Y-124013390D02*
X154181905Y-124061009D01*
X154181905Y-124061009D02*
X154134286Y-124156247D01*
X129833333Y-124584819D02*
X129500000Y-124108628D01*
X129261905Y-124584819D02*
X129261905Y-123584819D01*
X129261905Y-123584819D02*
X129642857Y-123584819D01*
X129642857Y-123584819D02*
X129738095Y-123632438D01*
X129738095Y-123632438D02*
X129785714Y-123680057D01*
X129785714Y-123680057D02*
X129833333Y-123775295D01*
X129833333Y-123775295D02*
X129833333Y-123918152D01*
X129833333Y-123918152D02*
X129785714Y-124013390D01*
X129785714Y-124013390D02*
X129738095Y-124061009D01*
X129738095Y-124061009D02*
X129642857Y-124108628D01*
X129642857Y-124108628D02*
X129261905Y-124108628D01*
X130690476Y-123918152D02*
X130690476Y-124584819D01*
X130452381Y-123537200D02*
X130214286Y-124251485D01*
X130214286Y-124251485D02*
X130833333Y-124251485D01*
X104166667Y-131033200D02*
X104309524Y-131080819D01*
X104309524Y-131080819D02*
X104547619Y-131080819D01*
X104547619Y-131080819D02*
X104642857Y-131033200D01*
X104642857Y-131033200D02*
X104690476Y-130985580D01*
X104690476Y-130985580D02*
X104738095Y-130890342D01*
X104738095Y-130890342D02*
X104738095Y-130795104D01*
X104738095Y-130795104D02*
X104690476Y-130699866D01*
X104690476Y-130699866D02*
X104642857Y-130652247D01*
X104642857Y-130652247D02*
X104547619Y-130604628D01*
X104547619Y-130604628D02*
X104357143Y-130557009D01*
X104357143Y-130557009D02*
X104261905Y-130509390D01*
X104261905Y-130509390D02*
X104214286Y-130461771D01*
X104214286Y-130461771D02*
X104166667Y-130366533D01*
X104166667Y-130366533D02*
X104166667Y-130271295D01*
X104166667Y-130271295D02*
X104214286Y-130176057D01*
X104214286Y-130176057D02*
X104261905Y-130128438D01*
X104261905Y-130128438D02*
X104357143Y-130080819D01*
X104357143Y-130080819D02*
X104595238Y-130080819D01*
X104595238Y-130080819D02*
X104738095Y-130128438D01*
X105071429Y-130080819D02*
X105309524Y-131080819D01*
X105309524Y-131080819D02*
X105500000Y-130366533D01*
X105500000Y-130366533D02*
X105690476Y-131080819D01*
X105690476Y-131080819D02*
X105928572Y-130080819D01*
X106261905Y-130176057D02*
X106309524Y-130128438D01*
X106309524Y-130128438D02*
X106404762Y-130080819D01*
X106404762Y-130080819D02*
X106642857Y-130080819D01*
X106642857Y-130080819D02*
X106738095Y-130128438D01*
X106738095Y-130128438D02*
X106785714Y-130176057D01*
X106785714Y-130176057D02*
X106833333Y-130271295D01*
X106833333Y-130271295D02*
X106833333Y-130366533D01*
X106833333Y-130366533D02*
X106785714Y-130509390D01*
X106785714Y-130509390D02*
X106214286Y-131080819D01*
X106214286Y-131080819D02*
X106833333Y-131080819D01*
X192348333Y-138619819D02*
X192015000Y-138143628D01*
X191776905Y-138619819D02*
X191776905Y-137619819D01*
X191776905Y-137619819D02*
X192157857Y-137619819D01*
X192157857Y-137619819D02*
X192253095Y-137667438D01*
X192253095Y-137667438D02*
X192300714Y-137715057D01*
X192300714Y-137715057D02*
X192348333Y-137810295D01*
X192348333Y-137810295D02*
X192348333Y-137953152D01*
X192348333Y-137953152D02*
X192300714Y-138048390D01*
X192300714Y-138048390D02*
X192253095Y-138096009D01*
X192253095Y-138096009D02*
X192157857Y-138143628D01*
X192157857Y-138143628D02*
X191776905Y-138143628D01*
X193300714Y-138619819D02*
X192729286Y-138619819D01*
X193015000Y-138619819D02*
X193015000Y-137619819D01*
X193015000Y-137619819D02*
X192919762Y-137762676D01*
X192919762Y-137762676D02*
X192824524Y-137857914D01*
X192824524Y-137857914D02*
X192729286Y-137905533D01*
X128666667Y-106533200D02*
X128809524Y-106580819D01*
X128809524Y-106580819D02*
X129047619Y-106580819D01*
X129047619Y-106580819D02*
X129142857Y-106533200D01*
X129142857Y-106533200D02*
X129190476Y-106485580D01*
X129190476Y-106485580D02*
X129238095Y-106390342D01*
X129238095Y-106390342D02*
X129238095Y-106295104D01*
X129238095Y-106295104D02*
X129190476Y-106199866D01*
X129190476Y-106199866D02*
X129142857Y-106152247D01*
X129142857Y-106152247D02*
X129047619Y-106104628D01*
X129047619Y-106104628D02*
X128857143Y-106057009D01*
X128857143Y-106057009D02*
X128761905Y-106009390D01*
X128761905Y-106009390D02*
X128714286Y-105961771D01*
X128714286Y-105961771D02*
X128666667Y-105866533D01*
X128666667Y-105866533D02*
X128666667Y-105771295D01*
X128666667Y-105771295D02*
X128714286Y-105676057D01*
X128714286Y-105676057D02*
X128761905Y-105628438D01*
X128761905Y-105628438D02*
X128857143Y-105580819D01*
X128857143Y-105580819D02*
X129095238Y-105580819D01*
X129095238Y-105580819D02*
X129238095Y-105628438D01*
X129571429Y-105580819D02*
X129809524Y-106580819D01*
X129809524Y-106580819D02*
X130000000Y-105866533D01*
X130000000Y-105866533D02*
X130190476Y-106580819D01*
X130190476Y-106580819D02*
X130428572Y-105580819D01*
X130714286Y-105580819D02*
X131333333Y-105580819D01*
X131333333Y-105580819D02*
X131000000Y-105961771D01*
X131000000Y-105961771D02*
X131142857Y-105961771D01*
X131142857Y-105961771D02*
X131238095Y-106009390D01*
X131238095Y-106009390D02*
X131285714Y-106057009D01*
X131285714Y-106057009D02*
X131333333Y-106152247D01*
X131333333Y-106152247D02*
X131333333Y-106390342D01*
X131333333Y-106390342D02*
X131285714Y-106485580D01*
X131285714Y-106485580D02*
X131238095Y-106533200D01*
X131238095Y-106533200D02*
X131142857Y-106580819D01*
X131142857Y-106580819D02*
X130857143Y-106580819D01*
X130857143Y-106580819D02*
X130761905Y-106533200D01*
X130761905Y-106533200D02*
X130714286Y-106485580D01*
X152586667Y-106533200D02*
X152729524Y-106580819D01*
X152729524Y-106580819D02*
X152967619Y-106580819D01*
X152967619Y-106580819D02*
X153062857Y-106533200D01*
X153062857Y-106533200D02*
X153110476Y-106485580D01*
X153110476Y-106485580D02*
X153158095Y-106390342D01*
X153158095Y-106390342D02*
X153158095Y-106295104D01*
X153158095Y-106295104D02*
X153110476Y-106199866D01*
X153110476Y-106199866D02*
X153062857Y-106152247D01*
X153062857Y-106152247D02*
X152967619Y-106104628D01*
X152967619Y-106104628D02*
X152777143Y-106057009D01*
X152777143Y-106057009D02*
X152681905Y-106009390D01*
X152681905Y-106009390D02*
X152634286Y-105961771D01*
X152634286Y-105961771D02*
X152586667Y-105866533D01*
X152586667Y-105866533D02*
X152586667Y-105771295D01*
X152586667Y-105771295D02*
X152634286Y-105676057D01*
X152634286Y-105676057D02*
X152681905Y-105628438D01*
X152681905Y-105628438D02*
X152777143Y-105580819D01*
X152777143Y-105580819D02*
X153015238Y-105580819D01*
X153015238Y-105580819D02*
X153158095Y-105628438D01*
X153491429Y-105580819D02*
X153729524Y-106580819D01*
X153729524Y-106580819D02*
X153920000Y-105866533D01*
X153920000Y-105866533D02*
X154110476Y-106580819D01*
X154110476Y-106580819D02*
X154348572Y-105580819D01*
X155205714Y-105580819D02*
X154729524Y-105580819D01*
X154729524Y-105580819D02*
X154681905Y-106057009D01*
X154681905Y-106057009D02*
X154729524Y-106009390D01*
X154729524Y-106009390D02*
X154824762Y-105961771D01*
X154824762Y-105961771D02*
X155062857Y-105961771D01*
X155062857Y-105961771D02*
X155158095Y-106009390D01*
X155158095Y-106009390D02*
X155205714Y-106057009D01*
X155205714Y-106057009D02*
X155253333Y-106152247D01*
X155253333Y-106152247D02*
X155253333Y-106390342D01*
X155253333Y-106390342D02*
X155205714Y-106485580D01*
X155205714Y-106485580D02*
X155158095Y-106533200D01*
X155158095Y-106533200D02*
X155062857Y-106580819D01*
X155062857Y-106580819D02*
X154824762Y-106580819D01*
X154824762Y-106580819D02*
X154729524Y-106533200D01*
X154729524Y-106533200D02*
X154681905Y-106485580D01*
X176666667Y-106533200D02*
X176809524Y-106580819D01*
X176809524Y-106580819D02*
X177047619Y-106580819D01*
X177047619Y-106580819D02*
X177142857Y-106533200D01*
X177142857Y-106533200D02*
X177190476Y-106485580D01*
X177190476Y-106485580D02*
X177238095Y-106390342D01*
X177238095Y-106390342D02*
X177238095Y-106295104D01*
X177238095Y-106295104D02*
X177190476Y-106199866D01*
X177190476Y-106199866D02*
X177142857Y-106152247D01*
X177142857Y-106152247D02*
X177047619Y-106104628D01*
X177047619Y-106104628D02*
X176857143Y-106057009D01*
X176857143Y-106057009D02*
X176761905Y-106009390D01*
X176761905Y-106009390D02*
X176714286Y-105961771D01*
X176714286Y-105961771D02*
X176666667Y-105866533D01*
X176666667Y-105866533D02*
X176666667Y-105771295D01*
X176666667Y-105771295D02*
X176714286Y-105676057D01*
X176714286Y-105676057D02*
X176761905Y-105628438D01*
X176761905Y-105628438D02*
X176857143Y-105580819D01*
X176857143Y-105580819D02*
X177095238Y-105580819D01*
X177095238Y-105580819D02*
X177238095Y-105628438D01*
X177571429Y-105580819D02*
X177809524Y-106580819D01*
X177809524Y-106580819D02*
X178000000Y-105866533D01*
X178000000Y-105866533D02*
X178190476Y-106580819D01*
X178190476Y-106580819D02*
X178428572Y-105580819D01*
X178714286Y-105580819D02*
X179380952Y-105580819D01*
X179380952Y-105580819D02*
X178952381Y-106580819D01*
X152586667Y-131033200D02*
X152729524Y-131080819D01*
X152729524Y-131080819D02*
X152967619Y-131080819D01*
X152967619Y-131080819D02*
X153062857Y-131033200D01*
X153062857Y-131033200D02*
X153110476Y-130985580D01*
X153110476Y-130985580D02*
X153158095Y-130890342D01*
X153158095Y-130890342D02*
X153158095Y-130795104D01*
X153158095Y-130795104D02*
X153110476Y-130699866D01*
X153110476Y-130699866D02*
X153062857Y-130652247D01*
X153062857Y-130652247D02*
X152967619Y-130604628D01*
X152967619Y-130604628D02*
X152777143Y-130557009D01*
X152777143Y-130557009D02*
X152681905Y-130509390D01*
X152681905Y-130509390D02*
X152634286Y-130461771D01*
X152634286Y-130461771D02*
X152586667Y-130366533D01*
X152586667Y-130366533D02*
X152586667Y-130271295D01*
X152586667Y-130271295D02*
X152634286Y-130176057D01*
X152634286Y-130176057D02*
X152681905Y-130128438D01*
X152681905Y-130128438D02*
X152777143Y-130080819D01*
X152777143Y-130080819D02*
X153015238Y-130080819D01*
X153015238Y-130080819D02*
X153158095Y-130128438D01*
X153491429Y-130080819D02*
X153729524Y-131080819D01*
X153729524Y-131080819D02*
X153920000Y-130366533D01*
X153920000Y-130366533D02*
X154110476Y-131080819D01*
X154110476Y-131080819D02*
X154348572Y-130080819D01*
X155158095Y-130080819D02*
X154967619Y-130080819D01*
X154967619Y-130080819D02*
X154872381Y-130128438D01*
X154872381Y-130128438D02*
X154824762Y-130176057D01*
X154824762Y-130176057D02*
X154729524Y-130318914D01*
X154729524Y-130318914D02*
X154681905Y-130509390D01*
X154681905Y-130509390D02*
X154681905Y-130890342D01*
X154681905Y-130890342D02*
X154729524Y-130985580D01*
X154729524Y-130985580D02*
X154777143Y-131033200D01*
X154777143Y-131033200D02*
X154872381Y-131080819D01*
X154872381Y-131080819D02*
X155062857Y-131080819D01*
X155062857Y-131080819D02*
X155158095Y-131033200D01*
X155158095Y-131033200D02*
X155205714Y-130985580D01*
X155205714Y-130985580D02*
X155253333Y-130890342D01*
X155253333Y-130890342D02*
X155253333Y-130652247D01*
X155253333Y-130652247D02*
X155205714Y-130557009D01*
X155205714Y-130557009D02*
X155158095Y-130509390D01*
X155158095Y-130509390D02*
X155062857Y-130461771D01*
X155062857Y-130461771D02*
X154872381Y-130461771D01*
X154872381Y-130461771D02*
X154777143Y-130509390D01*
X154777143Y-130509390D02*
X154729524Y-130557009D01*
X154729524Y-130557009D02*
X154681905Y-130652247D01*
X176746667Y-131033200D02*
X176889524Y-131080819D01*
X176889524Y-131080819D02*
X177127619Y-131080819D01*
X177127619Y-131080819D02*
X177222857Y-131033200D01*
X177222857Y-131033200D02*
X177270476Y-130985580D01*
X177270476Y-130985580D02*
X177318095Y-130890342D01*
X177318095Y-130890342D02*
X177318095Y-130795104D01*
X177318095Y-130795104D02*
X177270476Y-130699866D01*
X177270476Y-130699866D02*
X177222857Y-130652247D01*
X177222857Y-130652247D02*
X177127619Y-130604628D01*
X177127619Y-130604628D02*
X176937143Y-130557009D01*
X176937143Y-130557009D02*
X176841905Y-130509390D01*
X176841905Y-130509390D02*
X176794286Y-130461771D01*
X176794286Y-130461771D02*
X176746667Y-130366533D01*
X176746667Y-130366533D02*
X176746667Y-130271295D01*
X176746667Y-130271295D02*
X176794286Y-130176057D01*
X176794286Y-130176057D02*
X176841905Y-130128438D01*
X176841905Y-130128438D02*
X176937143Y-130080819D01*
X176937143Y-130080819D02*
X177175238Y-130080819D01*
X177175238Y-130080819D02*
X177318095Y-130128438D01*
X177651429Y-130080819D02*
X177889524Y-131080819D01*
X177889524Y-131080819D02*
X178080000Y-130366533D01*
X178080000Y-130366533D02*
X178270476Y-131080819D01*
X178270476Y-131080819D02*
X178508572Y-130080819D01*
X179032381Y-130509390D02*
X178937143Y-130461771D01*
X178937143Y-130461771D02*
X178889524Y-130414152D01*
X178889524Y-130414152D02*
X178841905Y-130318914D01*
X178841905Y-130318914D02*
X178841905Y-130271295D01*
X178841905Y-130271295D02*
X178889524Y-130176057D01*
X178889524Y-130176057D02*
X178937143Y-130128438D01*
X178937143Y-130128438D02*
X179032381Y-130080819D01*
X179032381Y-130080819D02*
X179222857Y-130080819D01*
X179222857Y-130080819D02*
X179318095Y-130128438D01*
X179318095Y-130128438D02*
X179365714Y-130176057D01*
X179365714Y-130176057D02*
X179413333Y-130271295D01*
X179413333Y-130271295D02*
X179413333Y-130318914D01*
X179413333Y-130318914D02*
X179365714Y-130414152D01*
X179365714Y-130414152D02*
X179318095Y-130461771D01*
X179318095Y-130461771D02*
X179222857Y-130509390D01*
X179222857Y-130509390D02*
X179032381Y-130509390D01*
X179032381Y-130509390D02*
X178937143Y-130557009D01*
X178937143Y-130557009D02*
X178889524Y-130604628D01*
X178889524Y-130604628D02*
X178841905Y-130699866D01*
X178841905Y-130699866D02*
X178841905Y-130890342D01*
X178841905Y-130890342D02*
X178889524Y-130985580D01*
X178889524Y-130985580D02*
X178937143Y-131033200D01*
X178937143Y-131033200D02*
X179032381Y-131080819D01*
X179032381Y-131080819D02*
X179222857Y-131080819D01*
X179222857Y-131080819D02*
X179318095Y-131033200D01*
X179318095Y-131033200D02*
X179365714Y-130985580D01*
X179365714Y-130985580D02*
X179413333Y-130890342D01*
X179413333Y-130890342D02*
X179413333Y-130699866D01*
X179413333Y-130699866D02*
X179365714Y-130604628D01*
X179365714Y-130604628D02*
X179318095Y-130557009D01*
X179318095Y-130557009D02*
X179222857Y-130509390D01*
X128476667Y-131073200D02*
X128619524Y-131120819D01*
X128619524Y-131120819D02*
X128857619Y-131120819D01*
X128857619Y-131120819D02*
X128952857Y-131073200D01*
X128952857Y-131073200D02*
X129000476Y-131025580D01*
X129000476Y-131025580D02*
X129048095Y-130930342D01*
X129048095Y-130930342D02*
X129048095Y-130835104D01*
X129048095Y-130835104D02*
X129000476Y-130739866D01*
X129000476Y-130739866D02*
X128952857Y-130692247D01*
X128952857Y-130692247D02*
X128857619Y-130644628D01*
X128857619Y-130644628D02*
X128667143Y-130597009D01*
X128667143Y-130597009D02*
X128571905Y-130549390D01*
X128571905Y-130549390D02*
X128524286Y-130501771D01*
X128524286Y-130501771D02*
X128476667Y-130406533D01*
X128476667Y-130406533D02*
X128476667Y-130311295D01*
X128476667Y-130311295D02*
X128524286Y-130216057D01*
X128524286Y-130216057D02*
X128571905Y-130168438D01*
X128571905Y-130168438D02*
X128667143Y-130120819D01*
X128667143Y-130120819D02*
X128905238Y-130120819D01*
X128905238Y-130120819D02*
X129048095Y-130168438D01*
X129381429Y-130120819D02*
X129619524Y-131120819D01*
X129619524Y-131120819D02*
X129810000Y-130406533D01*
X129810000Y-130406533D02*
X130000476Y-131120819D01*
X130000476Y-131120819D02*
X130238572Y-130120819D01*
X131048095Y-130454152D02*
X131048095Y-131120819D01*
X130810000Y-130073200D02*
X130571905Y-130787485D01*
X130571905Y-130787485D02*
X131190952Y-130787485D01*
X104913333Y-124584819D02*
X104580000Y-124108628D01*
X104341905Y-124584819D02*
X104341905Y-123584819D01*
X104341905Y-123584819D02*
X104722857Y-123584819D01*
X104722857Y-123584819D02*
X104818095Y-123632438D01*
X104818095Y-123632438D02*
X104865714Y-123680057D01*
X104865714Y-123680057D02*
X104913333Y-123775295D01*
X104913333Y-123775295D02*
X104913333Y-123918152D01*
X104913333Y-123918152D02*
X104865714Y-124013390D01*
X104865714Y-124013390D02*
X104818095Y-124061009D01*
X104818095Y-124061009D02*
X104722857Y-124108628D01*
X104722857Y-124108628D02*
X104341905Y-124108628D01*
X105294286Y-123680057D02*
X105341905Y-123632438D01*
X105341905Y-123632438D02*
X105437143Y-123584819D01*
X105437143Y-123584819D02*
X105675238Y-123584819D01*
X105675238Y-123584819D02*
X105770476Y-123632438D01*
X105770476Y-123632438D02*
X105818095Y-123680057D01*
X105818095Y-123680057D02*
X105865714Y-123775295D01*
X105865714Y-123775295D02*
X105865714Y-123870533D01*
X105865714Y-123870533D02*
X105818095Y-124013390D01*
X105818095Y-124013390D02*
X105246667Y-124584819D01*
X105246667Y-124584819D02*
X105865714Y-124584819D01*
X177753333Y-124584819D02*
X177420000Y-124108628D01*
X177181905Y-124584819D02*
X177181905Y-123584819D01*
X177181905Y-123584819D02*
X177562857Y-123584819D01*
X177562857Y-123584819D02*
X177658095Y-123632438D01*
X177658095Y-123632438D02*
X177705714Y-123680057D01*
X177705714Y-123680057D02*
X177753333Y-123775295D01*
X177753333Y-123775295D02*
X177753333Y-123918152D01*
X177753333Y-123918152D02*
X177705714Y-124013390D01*
X177705714Y-124013390D02*
X177658095Y-124061009D01*
X177658095Y-124061009D02*
X177562857Y-124108628D01*
X177562857Y-124108628D02*
X177181905Y-124108628D01*
X178324762Y-124013390D02*
X178229524Y-123965771D01*
X178229524Y-123965771D02*
X178181905Y-123918152D01*
X178181905Y-123918152D02*
X178134286Y-123822914D01*
X178134286Y-123822914D02*
X178134286Y-123775295D01*
X178134286Y-123775295D02*
X178181905Y-123680057D01*
X178181905Y-123680057D02*
X178229524Y-123632438D01*
X178229524Y-123632438D02*
X178324762Y-123584819D01*
X178324762Y-123584819D02*
X178515238Y-123584819D01*
X178515238Y-123584819D02*
X178610476Y-123632438D01*
X178610476Y-123632438D02*
X178658095Y-123680057D01*
X178658095Y-123680057D02*
X178705714Y-123775295D01*
X178705714Y-123775295D02*
X178705714Y-123822914D01*
X178705714Y-123822914D02*
X178658095Y-123918152D01*
X178658095Y-123918152D02*
X178610476Y-123965771D01*
X178610476Y-123965771D02*
X178515238Y-124013390D01*
X178515238Y-124013390D02*
X178324762Y-124013390D01*
X178324762Y-124013390D02*
X178229524Y-124061009D01*
X178229524Y-124061009D02*
X178181905Y-124108628D01*
X178181905Y-124108628D02*
X178134286Y-124203866D01*
X178134286Y-124203866D02*
X178134286Y-124394342D01*
X178134286Y-124394342D02*
X178181905Y-124489580D01*
X178181905Y-124489580D02*
X178229524Y-124537200D01*
X178229524Y-124537200D02*
X178324762Y-124584819D01*
X178324762Y-124584819D02*
X178515238Y-124584819D01*
X178515238Y-124584819D02*
X178610476Y-124537200D01*
X178610476Y-124537200D02*
X178658095Y-124489580D01*
X178658095Y-124489580D02*
X178705714Y-124394342D01*
X178705714Y-124394342D02*
X178705714Y-124203866D01*
X178705714Y-124203866D02*
X178658095Y-124108628D01*
X178658095Y-124108628D02*
X178610476Y-124061009D01*
X178610476Y-124061009D02*
X178515238Y-124013390D01*
X104086667Y-106533200D02*
X104229524Y-106580819D01*
X104229524Y-106580819D02*
X104467619Y-106580819D01*
X104467619Y-106580819D02*
X104562857Y-106533200D01*
X104562857Y-106533200D02*
X104610476Y-106485580D01*
X104610476Y-106485580D02*
X104658095Y-106390342D01*
X104658095Y-106390342D02*
X104658095Y-106295104D01*
X104658095Y-106295104D02*
X104610476Y-106199866D01*
X104610476Y-106199866D02*
X104562857Y-106152247D01*
X104562857Y-106152247D02*
X104467619Y-106104628D01*
X104467619Y-106104628D02*
X104277143Y-106057009D01*
X104277143Y-106057009D02*
X104181905Y-106009390D01*
X104181905Y-106009390D02*
X104134286Y-105961771D01*
X104134286Y-105961771D02*
X104086667Y-105866533D01*
X104086667Y-105866533D02*
X104086667Y-105771295D01*
X104086667Y-105771295D02*
X104134286Y-105676057D01*
X104134286Y-105676057D02*
X104181905Y-105628438D01*
X104181905Y-105628438D02*
X104277143Y-105580819D01*
X104277143Y-105580819D02*
X104515238Y-105580819D01*
X104515238Y-105580819D02*
X104658095Y-105628438D01*
X104991429Y-105580819D02*
X105229524Y-106580819D01*
X105229524Y-106580819D02*
X105420000Y-105866533D01*
X105420000Y-105866533D02*
X105610476Y-106580819D01*
X105610476Y-106580819D02*
X105848572Y-105580819D01*
X106753333Y-106580819D02*
X106181905Y-106580819D01*
X106467619Y-106580819D02*
X106467619Y-105580819D01*
X106467619Y-105580819D02*
X106372381Y-105723676D01*
X106372381Y-105723676D02*
X106277143Y-105818914D01*
X106277143Y-105818914D02*
X106181905Y-105866533D01*
X104654760Y-89631009D02*
X104797617Y-89678628D01*
X104797617Y-89678628D02*
X104845236Y-89726247D01*
X104845236Y-89726247D02*
X104892855Y-89821485D01*
X104892855Y-89821485D02*
X104892855Y-89964342D01*
X104892855Y-89964342D02*
X104845236Y-90059580D01*
X104845236Y-90059580D02*
X104797617Y-90107200D01*
X104797617Y-90107200D02*
X104702379Y-90154819D01*
X104702379Y-90154819D02*
X104321427Y-90154819D01*
X104321427Y-90154819D02*
X104321427Y-89154819D01*
X104321427Y-89154819D02*
X104654760Y-89154819D01*
X104654760Y-89154819D02*
X104749998Y-89202438D01*
X104749998Y-89202438D02*
X104797617Y-89250057D01*
X104797617Y-89250057D02*
X104845236Y-89345295D01*
X104845236Y-89345295D02*
X104845236Y-89440533D01*
X104845236Y-89440533D02*
X104797617Y-89535771D01*
X104797617Y-89535771D02*
X104749998Y-89583390D01*
X104749998Y-89583390D02*
X104654760Y-89631009D01*
X104654760Y-89631009D02*
X104321427Y-89631009D01*
X105749998Y-90154819D02*
X105749998Y-89631009D01*
X105749998Y-89631009D02*
X105702379Y-89535771D01*
X105702379Y-89535771D02*
X105607141Y-89488152D01*
X105607141Y-89488152D02*
X105416665Y-89488152D01*
X105416665Y-89488152D02*
X105321427Y-89535771D01*
X105749998Y-90107200D02*
X105654760Y-90154819D01*
X105654760Y-90154819D02*
X105416665Y-90154819D01*
X105416665Y-90154819D02*
X105321427Y-90107200D01*
X105321427Y-90107200D02*
X105273808Y-90011961D01*
X105273808Y-90011961D02*
X105273808Y-89916723D01*
X105273808Y-89916723D02*
X105321427Y-89821485D01*
X105321427Y-89821485D02*
X105416665Y-89773866D01*
X105416665Y-89773866D02*
X105654760Y-89773866D01*
X105654760Y-89773866D02*
X105749998Y-89726247D01*
X106083332Y-89488152D02*
X106464284Y-89488152D01*
X106226189Y-89154819D02*
X106226189Y-90011961D01*
X106226189Y-90011961D02*
X106273808Y-90107200D01*
X106273808Y-90107200D02*
X106369046Y-90154819D01*
X106369046Y-90154819D02*
X106464284Y-90154819D01*
X106654761Y-89488152D02*
X107035713Y-89488152D01*
X106797618Y-89154819D02*
X106797618Y-90011961D01*
X106797618Y-90011961D02*
X106845237Y-90107200D01*
X106845237Y-90107200D02*
X106940475Y-90154819D01*
X106940475Y-90154819D02*
X107035713Y-90154819D01*
X107749999Y-90107200D02*
X107654761Y-90154819D01*
X107654761Y-90154819D02*
X107464285Y-90154819D01*
X107464285Y-90154819D02*
X107369047Y-90107200D01*
X107369047Y-90107200D02*
X107321428Y-90011961D01*
X107321428Y-90011961D02*
X107321428Y-89631009D01*
X107321428Y-89631009D02*
X107369047Y-89535771D01*
X107369047Y-89535771D02*
X107464285Y-89488152D01*
X107464285Y-89488152D02*
X107654761Y-89488152D01*
X107654761Y-89488152D02*
X107749999Y-89535771D01*
X107749999Y-89535771D02*
X107797618Y-89631009D01*
X107797618Y-89631009D02*
X107797618Y-89726247D01*
X107797618Y-89726247D02*
X107321428Y-89821485D01*
X108226190Y-90154819D02*
X108226190Y-89488152D01*
X108226190Y-89678628D02*
X108273809Y-89583390D01*
X108273809Y-89583390D02*
X108321428Y-89535771D01*
X108321428Y-89535771D02*
X108416666Y-89488152D01*
X108416666Y-89488152D02*
X108511904Y-89488152D01*
X109178571Y-89631009D02*
X109321428Y-89678628D01*
X109321428Y-89678628D02*
X109369047Y-89726247D01*
X109369047Y-89726247D02*
X109416666Y-89821485D01*
X109416666Y-89821485D02*
X109416666Y-89964342D01*
X109416666Y-89964342D02*
X109369047Y-90059580D01*
X109369047Y-90059580D02*
X109321428Y-90107200D01*
X109321428Y-90107200D02*
X109226190Y-90154819D01*
X109226190Y-90154819D02*
X108845238Y-90154819D01*
X108845238Y-90154819D02*
X108845238Y-89154819D01*
X108845238Y-89154819D02*
X109178571Y-89154819D01*
X109178571Y-89154819D02*
X109273809Y-89202438D01*
X109273809Y-89202438D02*
X109321428Y-89250057D01*
X109321428Y-89250057D02*
X109369047Y-89345295D01*
X109369047Y-89345295D02*
X109369047Y-89440533D01*
X109369047Y-89440533D02*
X109321428Y-89535771D01*
X109321428Y-89535771D02*
X109273809Y-89583390D01*
X109273809Y-89583390D02*
X109178571Y-89631009D01*
X109178571Y-89631009D02*
X108845238Y-89631009D01*
X110273809Y-90154819D02*
X110273809Y-89631009D01*
X110273809Y-89631009D02*
X110226190Y-89535771D01*
X110226190Y-89535771D02*
X110130952Y-89488152D01*
X110130952Y-89488152D02*
X109940476Y-89488152D01*
X109940476Y-89488152D02*
X109845238Y-89535771D01*
X110273809Y-90107200D02*
X110178571Y-90154819D01*
X110178571Y-90154819D02*
X109940476Y-90154819D01*
X109940476Y-90154819D02*
X109845238Y-90107200D01*
X109845238Y-90107200D02*
X109797619Y-90011961D01*
X109797619Y-90011961D02*
X109797619Y-89916723D01*
X109797619Y-89916723D02*
X109845238Y-89821485D01*
X109845238Y-89821485D02*
X109940476Y-89773866D01*
X109940476Y-89773866D02*
X110178571Y-89773866D01*
X110178571Y-89773866D02*
X110273809Y-89726247D01*
X110750000Y-90154819D02*
X110750000Y-89488152D01*
X110750000Y-89678628D02*
X110797619Y-89583390D01*
X110797619Y-89583390D02*
X110845238Y-89535771D01*
X110845238Y-89535771D02*
X110940476Y-89488152D01*
X110940476Y-89488152D02*
X111035714Y-89488152D01*
X111369048Y-90154819D02*
X111369048Y-89488152D01*
X111369048Y-89678628D02*
X111416667Y-89583390D01*
X111416667Y-89583390D02*
X111464286Y-89535771D01*
X111464286Y-89535771D02*
X111559524Y-89488152D01*
X111559524Y-89488152D02*
X111654762Y-89488152D01*
X112369048Y-90107200D02*
X112273810Y-90154819D01*
X112273810Y-90154819D02*
X112083334Y-90154819D01*
X112083334Y-90154819D02*
X111988096Y-90107200D01*
X111988096Y-90107200D02*
X111940477Y-90011961D01*
X111940477Y-90011961D02*
X111940477Y-89631009D01*
X111940477Y-89631009D02*
X111988096Y-89535771D01*
X111988096Y-89535771D02*
X112083334Y-89488152D01*
X112083334Y-89488152D02*
X112273810Y-89488152D01*
X112273810Y-89488152D02*
X112369048Y-89535771D01*
X112369048Y-89535771D02*
X112416667Y-89631009D01*
X112416667Y-89631009D02*
X112416667Y-89726247D01*
X112416667Y-89726247D02*
X111940477Y-89821485D01*
X112988096Y-90154819D02*
X112892858Y-90107200D01*
X112892858Y-90107200D02*
X112845239Y-90011961D01*
X112845239Y-90011961D02*
X112845239Y-89154819D01*
X113654763Y-89154819D02*
X113654763Y-89869104D01*
X113654763Y-89869104D02*
X113607144Y-90011961D01*
X113607144Y-90011961D02*
X113511906Y-90107200D01*
X113511906Y-90107200D02*
X113369049Y-90154819D01*
X113369049Y-90154819D02*
X113273811Y-90154819D01*
X114559525Y-90154819D02*
X114559525Y-89631009D01*
X114559525Y-89631009D02*
X114511906Y-89535771D01*
X114511906Y-89535771D02*
X114416668Y-89488152D01*
X114416668Y-89488152D02*
X114226192Y-89488152D01*
X114226192Y-89488152D02*
X114130954Y-89535771D01*
X114559525Y-90107200D02*
X114464287Y-90154819D01*
X114464287Y-90154819D02*
X114226192Y-90154819D01*
X114226192Y-90154819D02*
X114130954Y-90107200D01*
X114130954Y-90107200D02*
X114083335Y-90011961D01*
X114083335Y-90011961D02*
X114083335Y-89916723D01*
X114083335Y-89916723D02*
X114130954Y-89821485D01*
X114130954Y-89821485D02*
X114226192Y-89773866D01*
X114226192Y-89773866D02*
X114464287Y-89773866D01*
X114464287Y-89773866D02*
X114559525Y-89726247D01*
X115464287Y-90107200D02*
X115369049Y-90154819D01*
X115369049Y-90154819D02*
X115178573Y-90154819D01*
X115178573Y-90154819D02*
X115083335Y-90107200D01*
X115083335Y-90107200D02*
X115035716Y-90059580D01*
X115035716Y-90059580D02*
X114988097Y-89964342D01*
X114988097Y-89964342D02*
X114988097Y-89678628D01*
X114988097Y-89678628D02*
X115035716Y-89583390D01*
X115035716Y-89583390D02*
X115083335Y-89535771D01*
X115083335Y-89535771D02*
X115178573Y-89488152D01*
X115178573Y-89488152D02*
X115369049Y-89488152D01*
X115369049Y-89488152D02*
X115464287Y-89535771D01*
X115892859Y-90154819D02*
X115892859Y-89154819D01*
X115988097Y-89773866D02*
X116273811Y-90154819D01*
X116273811Y-89488152D02*
X115892859Y-89869104D01*
X117226192Y-90154819D02*
X116654764Y-90154819D01*
X116940478Y-90154819D02*
X116940478Y-89154819D01*
X116940478Y-89154819D02*
X116845240Y-89297676D01*
X116845240Y-89297676D02*
X116750002Y-89392914D01*
X116750002Y-89392914D02*
X116654764Y-89440533D01*
X177753333Y-100084819D02*
X177420000Y-99608628D01*
X177181905Y-100084819D02*
X177181905Y-99084819D01*
X177181905Y-99084819D02*
X177562857Y-99084819D01*
X177562857Y-99084819D02*
X177658095Y-99132438D01*
X177658095Y-99132438D02*
X177705714Y-99180057D01*
X177705714Y-99180057D02*
X177753333Y-99275295D01*
X177753333Y-99275295D02*
X177753333Y-99418152D01*
X177753333Y-99418152D02*
X177705714Y-99513390D01*
X177705714Y-99513390D02*
X177658095Y-99561009D01*
X177658095Y-99561009D02*
X177562857Y-99608628D01*
X177562857Y-99608628D02*
X177181905Y-99608628D01*
X178086667Y-99084819D02*
X178753333Y-99084819D01*
X178753333Y-99084819D02*
X178324762Y-100084819D01*
X129333333Y-99084819D02*
X129000000Y-98608628D01*
X128761905Y-99084819D02*
X128761905Y-98084819D01*
X128761905Y-98084819D02*
X129142857Y-98084819D01*
X129142857Y-98084819D02*
X129238095Y-98132438D01*
X129238095Y-98132438D02*
X129285714Y-98180057D01*
X129285714Y-98180057D02*
X129333333Y-98275295D01*
X129333333Y-98275295D02*
X129333333Y-98418152D01*
X129333333Y-98418152D02*
X129285714Y-98513390D01*
X129285714Y-98513390D02*
X129238095Y-98561009D01*
X129238095Y-98561009D02*
X129142857Y-98608628D01*
X129142857Y-98608628D02*
X128761905Y-98608628D01*
X129666667Y-98084819D02*
X130285714Y-98084819D01*
X130285714Y-98084819D02*
X129952381Y-98465771D01*
X129952381Y-98465771D02*
X130095238Y-98465771D01*
X130095238Y-98465771D02*
X130190476Y-98513390D01*
X130190476Y-98513390D02*
X130238095Y-98561009D01*
X130238095Y-98561009D02*
X130285714Y-98656247D01*
X130285714Y-98656247D02*
X130285714Y-98894342D01*
X130285714Y-98894342D02*
X130238095Y-98989580D01*
X130238095Y-98989580D02*
X130190476Y-99037200D01*
X130190476Y-99037200D02*
X130095238Y-99084819D01*
X130095238Y-99084819D02*
X129809524Y-99084819D01*
X129809524Y-99084819D02*
X129714286Y-99037200D01*
X129714286Y-99037200D02*
X129666667Y-98989580D01*
X153753333Y-99584819D02*
X153420000Y-99108628D01*
X153181905Y-99584819D02*
X153181905Y-98584819D01*
X153181905Y-98584819D02*
X153562857Y-98584819D01*
X153562857Y-98584819D02*
X153658095Y-98632438D01*
X153658095Y-98632438D02*
X153705714Y-98680057D01*
X153705714Y-98680057D02*
X153753333Y-98775295D01*
X153753333Y-98775295D02*
X153753333Y-98918152D01*
X153753333Y-98918152D02*
X153705714Y-99013390D01*
X153705714Y-99013390D02*
X153658095Y-99061009D01*
X153658095Y-99061009D02*
X153562857Y-99108628D01*
X153562857Y-99108628D02*
X153181905Y-99108628D01*
X154658095Y-98584819D02*
X154181905Y-98584819D01*
X154181905Y-98584819D02*
X154134286Y-99061009D01*
X154134286Y-99061009D02*
X154181905Y-99013390D01*
X154181905Y-99013390D02*
X154277143Y-98965771D01*
X154277143Y-98965771D02*
X154515238Y-98965771D01*
X154515238Y-98965771D02*
X154610476Y-99013390D01*
X154610476Y-99013390D02*
X154658095Y-99061009D01*
X154658095Y-99061009D02*
X154705714Y-99156247D01*
X154705714Y-99156247D02*
X154705714Y-99394342D01*
X154705714Y-99394342D02*
X154658095Y-99489580D01*
X154658095Y-99489580D02*
X154610476Y-99537200D01*
X154610476Y-99537200D02*
X154515238Y-99584819D01*
X154515238Y-99584819D02*
X154277143Y-99584819D01*
X154277143Y-99584819D02*
X154181905Y-99537200D01*
X154181905Y-99537200D02*
X154134286Y-99489580D01*
X125667619Y-96189104D02*
X126143809Y-96189104D01*
X125572381Y-96474819D02*
X125905714Y-95474819D01*
X125905714Y-95474819D02*
X126239047Y-96474819D01*
X126572381Y-96474819D02*
X126572381Y-95808152D01*
X126572381Y-95998628D02*
X126620000Y-95903390D01*
X126620000Y-95903390D02*
X126667619Y-95855771D01*
X126667619Y-95855771D02*
X126762857Y-95808152D01*
X126762857Y-95808152D02*
X126858095Y-95808152D01*
X127620000Y-96474819D02*
X127620000Y-95474819D01*
X127620000Y-96427200D02*
X127524762Y-96474819D01*
X127524762Y-96474819D02*
X127334286Y-96474819D01*
X127334286Y-96474819D02*
X127239048Y-96427200D01*
X127239048Y-96427200D02*
X127191429Y-96379580D01*
X127191429Y-96379580D02*
X127143810Y-96284342D01*
X127143810Y-96284342D02*
X127143810Y-95998628D01*
X127143810Y-95998628D02*
X127191429Y-95903390D01*
X127191429Y-95903390D02*
X127239048Y-95855771D01*
X127239048Y-95855771D02*
X127334286Y-95808152D01*
X127334286Y-95808152D02*
X127524762Y-95808152D01*
X127524762Y-95808152D02*
X127620000Y-95855771D01*
X128524762Y-95808152D02*
X128524762Y-96474819D01*
X128096191Y-95808152D02*
X128096191Y-96331961D01*
X128096191Y-96331961D02*
X128143810Y-96427200D01*
X128143810Y-96427200D02*
X128239048Y-96474819D01*
X128239048Y-96474819D02*
X128381905Y-96474819D01*
X128381905Y-96474819D02*
X128477143Y-96427200D01*
X128477143Y-96427200D02*
X128524762Y-96379580D01*
X129000953Y-96474819D02*
X129000953Y-95808152D01*
X129000953Y-95474819D02*
X128953334Y-95522438D01*
X128953334Y-95522438D02*
X129000953Y-95570057D01*
X129000953Y-95570057D02*
X129048572Y-95522438D01*
X129048572Y-95522438D02*
X129000953Y-95474819D01*
X129000953Y-95474819D02*
X129000953Y-95570057D01*
X129477143Y-95808152D02*
X129477143Y-96474819D01*
X129477143Y-95903390D02*
X129524762Y-95855771D01*
X129524762Y-95855771D02*
X129620000Y-95808152D01*
X129620000Y-95808152D02*
X129762857Y-95808152D01*
X129762857Y-95808152D02*
X129858095Y-95855771D01*
X129858095Y-95855771D02*
X129905714Y-95951009D01*
X129905714Y-95951009D02*
X129905714Y-96474819D01*
X130524762Y-96474819D02*
X130429524Y-96427200D01*
X130429524Y-96427200D02*
X130381905Y-96379580D01*
X130381905Y-96379580D02*
X130334286Y-96284342D01*
X130334286Y-96284342D02*
X130334286Y-95998628D01*
X130334286Y-95998628D02*
X130381905Y-95903390D01*
X130381905Y-95903390D02*
X130429524Y-95855771D01*
X130429524Y-95855771D02*
X130524762Y-95808152D01*
X130524762Y-95808152D02*
X130667619Y-95808152D01*
X130667619Y-95808152D02*
X130762857Y-95855771D01*
X130762857Y-95855771D02*
X130810476Y-95903390D01*
X130810476Y-95903390D02*
X130858095Y-95998628D01*
X130858095Y-95998628D02*
X130858095Y-96284342D01*
X130858095Y-96284342D02*
X130810476Y-96379580D01*
X130810476Y-96379580D02*
X130762857Y-96427200D01*
X130762857Y-96427200D02*
X130667619Y-96474819D01*
X130667619Y-96474819D02*
X130524762Y-96474819D01*
X131286667Y-96474819D02*
X131286667Y-95474819D01*
X131286667Y-95474819D02*
X131858095Y-96474819D01*
X131858095Y-96474819D02*
X131858095Y-95474819D01*
X132762857Y-96474819D02*
X132762857Y-95951009D01*
X132762857Y-95951009D02*
X132715238Y-95855771D01*
X132715238Y-95855771D02*
X132620000Y-95808152D01*
X132620000Y-95808152D02*
X132429524Y-95808152D01*
X132429524Y-95808152D02*
X132334286Y-95855771D01*
X132762857Y-96427200D02*
X132667619Y-96474819D01*
X132667619Y-96474819D02*
X132429524Y-96474819D01*
X132429524Y-96474819D02*
X132334286Y-96427200D01*
X132334286Y-96427200D02*
X132286667Y-96331961D01*
X132286667Y-96331961D02*
X132286667Y-96236723D01*
X132286667Y-96236723D02*
X132334286Y-96141485D01*
X132334286Y-96141485D02*
X132429524Y-96093866D01*
X132429524Y-96093866D02*
X132667619Y-96093866D01*
X132667619Y-96093866D02*
X132762857Y-96046247D01*
X133239048Y-95808152D02*
X133239048Y-96474819D01*
X133239048Y-95903390D02*
X133286667Y-95855771D01*
X133286667Y-95855771D02*
X133381905Y-95808152D01*
X133381905Y-95808152D02*
X133524762Y-95808152D01*
X133524762Y-95808152D02*
X133620000Y-95855771D01*
X133620000Y-95855771D02*
X133667619Y-95951009D01*
X133667619Y-95951009D02*
X133667619Y-96474819D01*
X134286667Y-96474819D02*
X134191429Y-96427200D01*
X134191429Y-96427200D02*
X134143810Y-96379580D01*
X134143810Y-96379580D02*
X134096191Y-96284342D01*
X134096191Y-96284342D02*
X134096191Y-95998628D01*
X134096191Y-95998628D02*
X134143810Y-95903390D01*
X134143810Y-95903390D02*
X134191429Y-95855771D01*
X134191429Y-95855771D02*
X134286667Y-95808152D01*
X134286667Y-95808152D02*
X134429524Y-95808152D01*
X134429524Y-95808152D02*
X134524762Y-95855771D01*
X134524762Y-95855771D02*
X134572381Y-95903390D01*
X134572381Y-95903390D02*
X134620000Y-95998628D01*
X134620000Y-95998628D02*
X134620000Y-96284342D01*
X134620000Y-96284342D02*
X134572381Y-96379580D01*
X134572381Y-96379580D02*
X134524762Y-96427200D01*
X134524762Y-96427200D02*
X134429524Y-96474819D01*
X134429524Y-96474819D02*
X134286667Y-96474819D01*
X135572381Y-96474819D02*
X135000953Y-96474819D01*
X135286667Y-96474819D02*
X135286667Y-95474819D01*
X135286667Y-95474819D02*
X135191429Y-95617676D01*
X135191429Y-95617676D02*
X135096191Y-95712914D01*
X135096191Y-95712914D02*
X135000953Y-95760533D01*
X136789819Y-89138094D02*
X135789819Y-89138094D01*
X135789819Y-89138094D02*
X135789819Y-88899999D01*
X135789819Y-88899999D02*
X135837438Y-88757142D01*
X135837438Y-88757142D02*
X135932676Y-88661904D01*
X135932676Y-88661904D02*
X136027914Y-88614285D01*
X136027914Y-88614285D02*
X136218390Y-88566666D01*
X136218390Y-88566666D02*
X136361247Y-88566666D01*
X136361247Y-88566666D02*
X136551723Y-88614285D01*
X136551723Y-88614285D02*
X136646961Y-88661904D01*
X136646961Y-88661904D02*
X136742200Y-88757142D01*
X136742200Y-88757142D02*
X136789819Y-88899999D01*
X136789819Y-88899999D02*
X136789819Y-89138094D01*
X135789819Y-87947618D02*
X135789819Y-87852380D01*
X135789819Y-87852380D02*
X135837438Y-87757142D01*
X135837438Y-87757142D02*
X135885057Y-87709523D01*
X135885057Y-87709523D02*
X135980295Y-87661904D01*
X135980295Y-87661904D02*
X136170771Y-87614285D01*
X136170771Y-87614285D02*
X136408866Y-87614285D01*
X136408866Y-87614285D02*
X136599342Y-87661904D01*
X136599342Y-87661904D02*
X136694580Y-87709523D01*
X136694580Y-87709523D02*
X136742200Y-87757142D01*
X136742200Y-87757142D02*
X136789819Y-87852380D01*
X136789819Y-87852380D02*
X136789819Y-87947618D01*
X136789819Y-87947618D02*
X136742200Y-88042856D01*
X136742200Y-88042856D02*
X136694580Y-88090475D01*
X136694580Y-88090475D02*
X136599342Y-88138094D01*
X136599342Y-88138094D02*
X136408866Y-88185713D01*
X136408866Y-88185713D02*
X136170771Y-88185713D01*
X136170771Y-88185713D02*
X135980295Y-88138094D01*
X135980295Y-88138094D02*
X135885057Y-88090475D01*
X135885057Y-88090475D02*
X135837438Y-88042856D01*
X135837438Y-88042856D02*
X135789819Y-87947618D01*
%TO.C,PanelSwitchConn1*%
D12*
X113620000Y-95005000D02*
X113620000Y-92355000D01*
X116380000Y-92355000D02*
X113620000Y-92355000D01*
X116380000Y-95005000D02*
X113620000Y-95005000D01*
X116380000Y-95005000D02*
X116380000Y-92355000D01*
X116380000Y-96275000D02*
X116380000Y-97655000D01*
X116380000Y-97655000D02*
X115000000Y-97655000D01*
%TO.C,BZ1*%
X190730000Y-92500000D02*
G75*
G02*
X178270000Y-92500000I-6230000J0D01*
G01*
X178270000Y-92500000D02*
G75*
G02*
X190730000Y-92500000I6230000J0D01*
G01*
X178100000Y-93999999D02*
G75*
G02*
X178100000Y-91000000I6400000J1499999D01*
G01*
%TO.C,ADAFRUIT0.96TFT1*%
X179620000Y-58620000D02*
X179620000Y-60000000D01*
X178240000Y-58620000D02*
X179620000Y-58620000D01*
X176970000Y-61380000D02*
X151460000Y-61380000D01*
X176970000Y-58620000D02*
X176970000Y-61380000D01*
X176970000Y-58620000D02*
X151460000Y-58620000D01*
X151460000Y-58620000D02*
X151460000Y-61380000D01*
%TO.C,R6*%
X149880000Y-126500000D02*
X150650000Y-126500000D01*
X157960000Y-126500000D02*
X157190000Y-126500000D01*
X150650000Y-125130000D02*
X157190000Y-125130000D01*
X157190000Y-127870000D01*
X150650000Y-127870000D01*
X150650000Y-125130000D01*
%TO.C,R4*%
X125960000Y-126500000D02*
X126730000Y-126500000D01*
X134040000Y-126500000D02*
X133270000Y-126500000D01*
X126730000Y-125130000D02*
X133270000Y-125130000D01*
X133270000Y-127870000D01*
X126730000Y-127870000D01*
X126730000Y-125130000D01*
%TO.C,SW2*%
X98515000Y-131515000D02*
X112485000Y-131515000D01*
X98515000Y-145485000D02*
X98515000Y-131515000D01*
X112485000Y-131515000D02*
X112485000Y-145485000D01*
X112485000Y-145485000D02*
X98515000Y-145485000D01*
%TO.C,R1*%
X100880000Y-101000000D02*
X101650000Y-101000000D01*
X108960000Y-101000000D02*
X108190000Y-101000000D01*
X101650000Y-99630000D02*
X108190000Y-99630000D01*
X108190000Y-102370000D01*
X101650000Y-102370000D01*
X101650000Y-99630000D01*
%TO.C,SW3*%
X123015000Y-107015000D02*
X136985000Y-107015000D01*
X123015000Y-120985000D02*
X123015000Y-107015000D01*
X136985000Y-107015000D02*
X136985000Y-120985000D01*
X136985000Y-120985000D02*
X123015000Y-120985000D01*
%TO.C,SW5*%
X146935000Y-107015000D02*
X160905000Y-107015000D01*
X146935000Y-120985000D02*
X146935000Y-107015000D01*
X160905000Y-107015000D02*
X160905000Y-120985000D01*
X160905000Y-120985000D02*
X146935000Y-120985000D01*
%TO.C,SW7*%
X171015000Y-107015000D02*
X184985000Y-107015000D01*
X171015000Y-120985000D02*
X171015000Y-107015000D01*
X184985000Y-107015000D02*
X184985000Y-120985000D01*
X184985000Y-120985000D02*
X171015000Y-120985000D01*
%TO.C,SW6*%
X146935000Y-131515000D02*
X160905000Y-131515000D01*
X146935000Y-145485000D02*
X146935000Y-131515000D01*
X160905000Y-131515000D02*
X160905000Y-145485000D01*
X160905000Y-145485000D02*
X146935000Y-145485000D01*
%TO.C,SW8*%
X171095000Y-131515000D02*
X185065000Y-131515000D01*
X171095000Y-145485000D02*
X171095000Y-131515000D01*
X185065000Y-131515000D02*
X185065000Y-145485000D01*
X185065000Y-145485000D02*
X171095000Y-145485000D01*
%TO.C,SW4*%
X122825000Y-131555000D02*
X136795000Y-131555000D01*
X122825000Y-145525000D02*
X122825000Y-131555000D01*
X136795000Y-131555000D02*
X136795000Y-145525000D01*
X136795000Y-145525000D02*
X122825000Y-145525000D01*
%TO.C,R2*%
X101810000Y-125130000D02*
X108350000Y-125130000D01*
X108350000Y-127870000D01*
X101810000Y-127870000D01*
X101810000Y-125130000D01*
X109120000Y-126500000D02*
X108350000Y-126500000D01*
X101040000Y-126500000D02*
X101810000Y-126500000D01*
%TO.C,R8*%
X174650000Y-125130000D02*
X181190000Y-125130000D01*
X181190000Y-127870000D01*
X174650000Y-127870000D01*
X174650000Y-125130000D01*
X181960000Y-126500000D02*
X181190000Y-126500000D01*
X173880000Y-126500000D02*
X174650000Y-126500000D01*
%TO.C,SW1*%
X112405000Y-120985000D02*
X98435000Y-120985000D01*
X112405000Y-107015000D02*
X112405000Y-120985000D01*
X98435000Y-120985000D02*
X98435000Y-107015000D01*
X98435000Y-107015000D02*
X112405000Y-107015000D01*
%TO.C,BatterBarrelJack1*%
X116090000Y-87740000D02*
X114350000Y-87740000D01*
X116090000Y-86000000D02*
X116090000Y-87740000D01*
X115850000Y-87500000D02*
X113050000Y-87500000D01*
X115850000Y-72900000D02*
X115850000Y-87500000D01*
X109450000Y-87500000D02*
X106650000Y-87500000D01*
X106650000Y-87500000D02*
X106650000Y-85500000D01*
X106650000Y-81900000D02*
X106650000Y-72900000D01*
X106650000Y-72900000D02*
X115850000Y-72900000D01*
%TO.C,R7*%
X174650000Y-100630000D02*
X181190000Y-100630000D01*
X181190000Y-103370000D01*
X174650000Y-103370000D01*
X174650000Y-100630000D01*
X181960000Y-102000000D02*
X181190000Y-102000000D01*
X173880000Y-102000000D02*
X174650000Y-102000000D01*
%TO.C,R3*%
X126230000Y-99630000D02*
X132770000Y-99630000D01*
X132770000Y-102370000D01*
X126230000Y-102370000D01*
X126230000Y-99630000D01*
X133540000Y-101000000D02*
X132770000Y-101000000D01*
X125460000Y-101000000D02*
X126230000Y-101000000D01*
%TO.C,R5*%
X150650000Y-100130000D02*
X157190000Y-100130000D01*
X157190000Y-102870000D01*
X150650000Y-102870000D01*
X150650000Y-100130000D01*
X157960000Y-101500000D02*
X157190000Y-101500000D01*
X149880000Y-101500000D02*
X150650000Y-101500000D01*
%TO.C,ArduinoNano1*%
D11*
X121730000Y-94750000D02*
X121730000Y-51570000D01*
X139510000Y-94750000D02*
X121730000Y-94750000D01*
X139510000Y-94750000D02*
X139510000Y-51570000D01*
X139510000Y-51570000D02*
X121730000Y-51570000D01*
%TD*%
M02*
